<svg width="120" height="20" viewBox="0 0 120 20" fill="none" xmlns="http://www.w3.org/2000/svg">
<path d="M9.53167 1.25247C9.69364 0.819299 10.3064 0.819299 10.4683 1.25247L12.3528 6.29217C12.4231 6.48009 12.5989 6.60782 12.7993 6.61657L18.1747 6.85146C18.6367 6.87165 18.826 7.45437 18.4641 7.74227L14.2534 11.0919C14.0964 11.2168 14.0293 11.4234 14.0829 11.6168L15.5206 16.8016C15.6441 17.2473 15.1484 17.6074 14.7628 17.3522L10.276 14.3826C10.1086 14.2719 9.89135 14.2719 9.72405 14.3826L5.23722 17.3522C4.85157 17.6074 4.35587 17.2473 4.47944 16.8016L5.91714 11.6168C5.97075 11.4234 5.9036 11.2168 5.74659 11.0919L1.53589 7.74227C1.17397 7.45437 1.3633 6.87165 1.82533 6.85146L7.2007 6.61657C7.40114 6.60782 7.57693 6.48009 7.6472 6.29217L9.53167 1.25247Z" fill="#FFD700"/>
<path d="M34.5317 1.25247C34.6936 0.819299 35.3064 0.819299 35.4683 1.25247L37.3528 6.29217C37.4231 6.48009 37.5989 6.60782 37.7993 6.61657L43.1747 6.85146C43.6367 6.87165 43.826 7.45437 43.4641 7.74227L39.2534 11.0919C39.0964 11.2168 39.0293 11.4234 39.0829 11.6168L40.5206 16.8016C40.6441 17.2473 40.1484 17.6074 39.7628 17.3522L35.276 14.3826C35.1086 14.2719 34.8914 14.2719 34.724 14.3826L30.2372 17.3522C29.8516 17.6074 29.3559 17.2473 29.4794 16.8016L30.9171 11.6168C30.9707 11.4234 30.9036 11.2168 30.7466 11.0919L26.5359 7.74227C26.174 7.45437 26.3633 6.87165 26.8253 6.85146L32.2007 6.61657C32.4011 6.60782 32.5769 6.48009 32.6472 6.29217L34.5317 1.25247Z" fill="#FFD700"/>
<path d="M59.5317 1.25247C59.6936 0.819299 60.3064 0.819299 60.4683 1.25247L62.3528 6.29217C62.4231 6.48009 62.5989 6.60782 62.7993 6.61657L68.1747 6.85146C68.6367 6.87165 68.826 7.45437 68.4641 7.74227L64.2534 11.0919C64.0964 11.2168 64.0293 11.4234 64.0829 11.6168L65.5206 16.8016C65.6441 17.2473 65.1484 17.6074 64.7628 17.3522L60.276 14.3826C60.1086 14.2719 59.8914 14.2719 59.724 14.3826L55.2372 17.3522C54.8516 17.6074 54.3559 17.2473 54.4794 16.8016L55.9171 11.6168C55.9707 11.4234 55.9036 11.2168 55.7466 11.0919L51.5359 7.74227C51.174 7.45437 51.3633 6.87165 51.8253 6.85146L57.2007 6.61657C57.4011 6.60782 57.5769 6.48009 57.6472 6.29217L59.5317 1.25247Z" fill="#FFD700"/>
<path d="M84.5317 1.25247C84.6936 0.819299 85.3064 0.819299 85.4683 1.25247L87.3528 6.29217C87.4231 6.48009 87.5989 6.60782 87.7993 6.61657L93.1747 6.85146C93.6367 6.87165 93.826 7.45437 93.4641 7.74227L89.2534 11.0919C89.0964 11.2168 89.0293 11.4234 89.0829 11.6168L90.5206 16.8016C90.6441 17.2473 90.1484 17.6074 89.7628 17.3522L85.276 14.3826C85.1086 14.2719 84.8914 14.2719 84.724 14.3826L80.2372 17.3522C79.8516 17.6074 79.3559 17.2473 79.4794 16.8016L80.9171 11.6168C80.9707 11.4234 80.9036 11.2168 80.7466 11.0919L76.5359 7.74227C76.174 7.45437 76.3633 6.87165 76.8253 6.85146L82.2007 6.61657C82.4011 6.60782 82.5769 6.48009 82.6472 6.29217L84.5317 1.25247Z" fill="#FFD700"/>
<path d="M109.532 1.25247C109.694 0.819299 110.306 0.819299 110.468 1.25247L112.353 6.29217C112.423 6.48009 112.599 6.60782 112.799 6.61657L118.175 6.85146C118.637 6.87165 118.826 7.45437 118.464 7.74227L114.253 11.0919C114.096 11.2168 114.029 11.4234 114.083 11.6168L115.521 16.8016C115.644 17.2473 115.148 17.6074 114.763 17.3522L110.276 14.3826C110.109 14.2719 109.891 14.2719 109.724 14.3826L105.237 17.3522C104.852 17.6074 104.356 17.2473 104.479 16.8016L105.917 11.6168C105.971 11.4234 105.904 11.2168 105.747 11.0919L101.536 7.74227C101.174 7.45437 101.363 6.87165 101.825 6.85146L107.201 6.61657C107.401 6.60782 107.577 6.48009 107.647 6.29217L109.532 1.25247Z" fill="#FFD700"/>
</svg>
