<svg width="61" height="38" viewBox="0 0 61 38" fill="none" xmlns="http://www.w3.org/2000/svg">
<path fill-rule="evenodd" clip-rule="evenodd" d="M0 18.3235V36.6468L10.2946 36.5773C18.8897 36.5195 20.7774 36.4659 21.7286 36.254C24.5736 35.6196 26.3321 34.7315 28.0089 33.0824C30.0056 31.1184 30.8163 29.0597 30.8045 25.9837C30.7867 21.3511 28.721 18.2424 24.7569 16.8831L24.2011 16.6926L25.1428 16.1662C27.0712 15.0882 28.378 13.4769 28.8839 11.5533C29.1772 10.4377 29.2143 7.84081 28.9544 6.60644C28.4016 3.98102 26.6891 2.0712 23.9833 1.06236C21.7187 0.218116 20.734 0.148473 9.96911 0.0714163L0 0V18.3235ZM39.2254 4.22074V5.99402H46.7124H54.1994V4.22074V2.44745H46.7124H39.2254V4.22074ZM18.5198 6.66593C20.0982 7.25772 20.8983 8.15113 21.1742 9.62973C21.4999 11.3742 20.8503 13.1304 19.5705 13.9654C18.3915 14.7345 17.4087 14.8604 12.5798 14.8604H8.13805V10.5776V6.29483L12.9802 6.34964C16.9533 6.39462 17.9475 6.45136 18.5198 6.66593ZM44.6605 9.55477C37.3387 10.7679 32.712 17.0712 33.3808 24.922C33.9046 31.0697 37.2104 35.186 42.9433 36.8285C44.0267 37.139 44.5727 37.1852 47.1193 37.1827C50.4618 37.1793 51.2816 37.0224 53.5166 35.9591C55.8791 34.8352 57.8477 32.6327 58.9995 29.8252C59.224 29.2777 59.4077 28.7336 59.4077 28.6159C59.4077 28.4454 58.764 28.4019 56.2372 28.4019H53.0667L52.7435 29.0294C52.3286 29.8348 51.2669 30.7473 50.1304 31.2752C49.3283 31.6479 49.0322 31.6919 47.2821 31.6989C45.0736 31.7076 44.324 31.538 43.2106 30.7772C41.8357 29.8379 41.0018 28.2729 40.7632 26.1844L40.6482 25.1777H50.3755H60.1027L60.0178 23.2029C59.8094 18.3622 58.1781 14.6862 55.1154 12.1557C52.4286 9.93554 48.4043 8.93444 44.6605 9.55477ZM48.6421 15.094C49.688 15.3698 50.6063 15.9442 51.1686 16.6745C51.758 17.4397 52.3669 18.8432 52.4971 19.737L52.6087 20.5027H46.6496C41.8922 20.5027 40.6902 20.4608 40.6902 20.2947C40.6902 19.7063 41.2544 18.0764 41.6915 17.4015C43.0249 15.3437 45.9302 14.3792 48.6421 15.094ZM19.7157 20.7198C20.671 21.0795 21.7297 21.9718 22.135 22.7588C22.594 23.6498 22.8238 25.3173 22.6407 26.4284C22.4322 27.6945 22.2452 28.1194 21.5717 28.8578C20.3424 30.2056 18.7203 30.4903 12.2478 30.4948L8.13805 30.4976V25.4097V20.3218L13.5498 20.3789C18.23 20.4282 19.0635 20.4743 19.7157 20.7198Z" fill="black"/>
</svg>
