<svg width="24" height="15" viewBox="0 0 24 15" fill="none" xmlns="http://www.w3.org/2000/svg">
<path fill-rule="evenodd" clip-rule="evenodd" d="M0.363281 7.73145V14.6582L4.25492 14.6319C7.50409 14.61 8.21769 14.5898 8.57726 14.5096C9.65277 14.2698 10.3175 13.9341 10.9514 13.3107C11.7062 12.5683 12.0127 11.79 12.0082 10.6272C12.0015 8.87598 11.2206 7.7008 9.72205 7.18695L9.51193 7.11492L9.86794 6.91594C10.5969 6.50843 11.0909 5.89933 11.2822 5.17213C11.393 4.75042 11.4071 3.76872 11.3088 3.3021C11.0998 2.30962 10.4525 1.58765 9.42961 1.20629C8.57351 0.887141 8.20127 0.860814 4.13187 0.831685L0.363281 0.804688V7.73145ZM15.1915 2.40024V3.07059H18.0218H20.8521V2.40024V1.72989H18.0218H15.1915V2.40024ZM7.36424 3.32459C7.96094 3.5483 8.26341 3.88603 8.3677 4.44498C8.49082 5.10442 8.24526 5.76831 7.76146 6.08398C7.31576 6.37473 6.94425 6.42232 5.11878 6.42232H3.43968V4.80331V3.1843L5.27014 3.20502C6.7721 3.22202 7.14791 3.24347 7.36424 3.32459ZM17.2461 4.41664C14.4783 4.87522 12.7293 7.25807 12.9821 10.2259C13.1801 12.5499 14.4298 14.1059 16.597 14.7268C17.0065 14.8442 17.213 14.8617 18.1756 14.8607C19.4392 14.8594 19.7491 14.8001 20.594 14.3982C21.4871 13.9733 22.2312 13.1407 22.6667 12.0794C22.7515 11.8724 22.821 11.6668 22.821 11.6223C22.821 11.5578 22.5776 11.5413 21.6224 11.5413H20.4239L20.3017 11.7786C20.1449 12.083 19.7435 12.428 19.3139 12.6276C19.0107 12.7684 18.8988 12.7851 18.2372 12.7877C17.4023 12.791 17.1189 12.7269 16.698 12.4393C16.1783 12.0842 15.863 11.4926 15.7728 10.7031L15.7294 10.3225H19.4066H23.0837L23.0516 9.57601C22.9728 7.74608 22.3561 6.35645 21.1984 5.39986C20.1827 4.56059 18.6614 4.18214 17.2461 4.41664ZM18.7513 6.51063C19.1467 6.6149 19.4938 6.83203 19.7064 7.10809C19.9292 7.39738 20.1593 7.92793 20.2086 8.26578L20.2508 8.55525H17.9981C16.1997 8.55525 15.7453 8.5394 15.7453 8.47664C15.7453 8.2542 15.9585 7.63803 16.1238 7.38293C16.6278 6.60502 17.7261 6.24042 18.7513 6.51063ZM7.81635 8.63734C8.17745 8.77329 8.57769 9.1106 8.7309 9.40811C8.90441 9.74493 8.99129 10.3753 8.92207 10.7953C8.84325 11.2739 8.77255 11.4346 8.51795 11.7137C8.05323 12.2232 7.44004 12.3308 4.99326 12.3325L3.43968 12.3336V10.4102V8.48687L5.48548 8.50845C7.25472 8.52709 7.5698 8.54452 7.81635 8.63734Z" fill="white"/>
</svg>
