<svg width="45" height="28" viewBox="0 0 45 28" fill="none" xmlns="http://www.w3.org/2000/svg">
<path fill-rule="evenodd" clip-rule="evenodd" d="M0 13.6281V27.2561L7.65663 27.2044C14.0492 27.1613 15.4532 27.1215 16.1606 26.9639C18.2766 26.4921 19.5845 25.8316 20.8316 24.605C22.3167 23.1443 22.9196 21.6132 22.9108 19.3254C22.8976 15.8799 21.3612 13.5678 18.413 12.5568L17.9996 12.4151L18.7 12.0236C20.1342 11.2219 21.1061 10.0235 21.4824 8.59273C21.7005 7.76304 21.7281 5.8316 21.5348 4.91354C21.1237 2.96088 19.85 1.54045 17.8376 0.790129C16.1532 0.162223 15.4209 0.110427 7.41452 0.0531158L0 0V13.6281ZM29.1739 3.13917V4.45805H34.7423H40.3108V3.13917V1.82029H34.7423H29.1739V3.13917ZM13.7741 4.95778C14.948 5.39793 15.5431 6.0624 15.7483 7.16211C15.9905 8.45953 15.5074 9.7657 14.5556 10.3868C13.6787 10.9588 12.9478 11.0524 9.35622 11.0524H6.05267V7.86711V4.68178L9.65401 4.72254C12.609 4.756 13.3484 4.7982 13.7741 4.95778ZM33.2162 7.10636C27.7706 8.00859 24.3296 12.6967 24.827 18.5358C25.2165 23.1081 27.6752 26.1695 31.9391 27.3912C32.7448 27.6221 33.151 27.6565 35.045 27.6546C37.5309 27.6521 38.1407 27.5354 39.803 26.7446C41.5601 25.9086 43.0242 24.2706 43.8809 22.1825C44.0478 21.7753 44.1845 21.3706 44.1845 21.2831C44.1845 21.1562 43.7057 21.1239 41.8264 21.1239H39.4684L39.228 21.5906C38.9194 22.1897 38.1298 22.8683 37.2845 23.2609C36.6879 23.5381 36.4677 23.5709 35.166 23.576C33.5234 23.5825 32.966 23.4564 32.1379 22.8906C31.1153 22.1919 30.495 21.028 30.3176 19.4747L30.2321 18.7259H37.4668H44.7014L44.6382 17.2572C44.4833 13.6569 43.2699 10.9228 40.9921 9.04079C38.9937 7.38956 36.0007 6.64499 33.2162 7.10636ZM36.1775 11.2262C36.9554 11.4313 37.6384 11.8585 38.0567 12.4017C38.495 12.9708 38.9478 14.0146 39.0447 14.6794L39.1277 15.2489H34.6956C31.1573 15.2489 30.2634 15.2177 30.2634 15.0942C30.2634 14.6566 30.6829 13.4443 31.0081 12.9424C31.9997 11.4119 34.1605 10.6945 36.1775 11.2262ZM14.6636 15.4104C15.374 15.6779 16.1615 16.3415 16.4629 16.9268C16.8043 17.5895 16.9752 18.8297 16.839 19.6561C16.6839 20.5978 16.5449 20.9138 16.0439 21.4629C15.1296 22.4654 13.9232 22.6772 9.10927 22.6805L6.05267 22.6826V18.8984V15.1143L10.0777 15.1568C13.5586 15.1935 14.1785 15.2278 14.6636 15.4104Z" fill="black"/>
</svg>
