<svg width="26" height="23" viewBox="0 0 26 23" fill="none" xmlns="http://www.w3.org/2000/svg">
<path d="M20.4132 16.4412H11.0101C9.89511 16.4412 8.90709 15.6722 8.60909 14.5718L5.43005 3.14941C5.25005 2.48853 4.65904 2.02941 3.99004 2.02941H1.50001C1.224 2.02941 1 1.79882 1 1.51471C1 1.23059 1.224 1 1.50001 1H3.99004C5.10505 1 6.09306 1.76897 6.39106 2.86941L7.01807 5.11765H23.4993C23.9783 5.11765 24.4173 5.34412 24.7023 5.73941C24.9883 6.13471 25.0733 6.63294 24.9353 7.10441L22.7843 14.6706C22.4383 15.7371 21.4872 16.4412 20.4132 16.4412ZM7.30407 6.14706L9.5711 14.2918C9.7501 14.9527 10.3411 15.4118 11.0101 15.4118H20.4132C21.0472 15.4118 21.6292 14.9804 21.8292 14.3638L23.9783 6.81C24.0243 6.6525 23.9953 6.48677 23.9003 6.355C23.8053 6.22221 23.6593 6.14706 23.4993 6.14706H7.30407Z" fill="#24390B" stroke="#24390B" stroke-width="0.8"/>
<path d="M12 22C10.897 22 10 21.0766 10 19.9412C10 18.8057 10.897 17.8823 12 17.8823C13.103 17.8823 14 18.8057 14 19.9412C14 21.0766 13.103 22 12 22ZM12 18.9117C11.448 18.9117 11 19.3739 11 19.9412C11 20.5084 11.448 20.9706 12 20.9706C12.552 20.9706 13 20.5084 13 19.9412C13 19.3739 12.552 18.9117 12 18.9117Z" fill="#24390B" stroke="#24390B" stroke-width="0.8"/>
<path d="M19.0001 22C17.8971 22 17.0001 21.0766 17.0001 19.9412C17.0001 18.8057 17.8971 17.8823 19.0001 17.8823C20.1032 17.8823 21.0002 18.8057 21.0002 19.9412C21.0002 21.0766 20.1032 22 19.0001 22ZM19.0001 18.9117C18.4481 18.9117 18.0001 19.3739 18.0001 19.9412C18.0001 20.5084 18.4481 20.9706 19.0001 20.9706C19.5521 20.9706 20.0002 20.5084 20.0002 19.9412C20.0002 19.3739 19.5521 18.9117 19.0001 18.9117Z" fill="#24390B" stroke="#24390B" stroke-width="0.8"/>
</svg>
