<svg width="166" height="166" viewBox="0 0 166 166" fill="none" xmlns="http://www.w3.org/2000/svg">
<g filter="url(#filter0_d_172_4)">
<circle cx="73" cy="83" r="50" fill="#588535"/>
<circle cx="73" cy="83" r="50" stroke="white" stroke-width="5"/>
</g>
<path d="M60.4012 73.5336C62.1313 73.5336 63.608 72.9218 64.8317 71.6978C66.0558 70.4739 66.6679 68.9967 66.6679 67.2669C66.6679 65.5373 66.0558 64.0602 64.8317 62.836C63.608 61.6121 62.1312 61 60.4012 61C58.6712 61 57.1944 61.6121 55.9705 62.836C54.7466 64.0602 54.1345 65.5369 54.1345 67.2669C54.1345 68.9971 54.7466 70.4739 55.9705 71.6978C57.1944 72.9215 58.6712 73.5336 60.4012 73.5336Z" fill="#ECF1E7"/>
<path d="M67.8507 83.3119C69.6866 85.1473 71.9017 86.0654 74.4969 86.0654C77.0922 86.0654 79.3072 85.1473 81.1431 83.3119C82.9787 81.4754 83.8968 79.26 83.8968 76.6654C83.8968 74.0705 82.9787 71.8552 81.1431 70.0192C79.3072 68.1832 77.0922 67.2651 74.4969 67.2651C71.9017 67.2651 69.6864 68.1833 67.8507 70.0192C66.0149 71.855 65.0967 74.0703 65.0967 76.6654C65.0967 79.2605 66.0149 81.4756 67.8507 83.3119Z" fill="#ECF1E7"/>
<path d="M88.6004 73.5336C90.3298 73.5336 91.8069 72.9218 93.0307 71.6978C94.2546 70.4739 94.8663 68.9967 94.8663 67.2669C94.8663 65.5373 94.2546 64.0602 93.0307 62.836C91.8069 61.6121 90.3298 61 88.6004 61C86.8698 61 85.3931 61.6121 84.1692 62.836C82.9456 64.0602 82.3336 65.5369 82.3336 67.2669C82.3336 68.9971 82.9457 70.4739 84.1692 71.6978C85.3931 72.9215 86.8698 73.5336 88.6004 73.5336Z" fill="#ECF1E7"/>
<path d="M94.9639 73.5342C94.8665 73.5342 94.5115 73.7056 93.8994 74.0483C93.2879 74.3912 92.4919 74.738 91.513 75.0889C90.5342 75.4395 89.5626 75.615 88.6002 75.615C87.5063 75.615 86.4219 75.4275 85.3444 75.052C85.4254 75.6555 85.4665 76.1942 85.4665 76.6675C85.4665 78.9359 84.8054 81.0247 83.483 82.9341C86.1273 83.016 88.2892 84.0603 89.9708 86.0681H93.2508C94.5888 86.0681 95.7149 85.7369 96.6287 85.0761C97.5424 84.4157 97.9996 83.4482 97.9996 82.1755C97.9998 76.4143 96.9884 73.5338 94.9639 73.5342Z" fill="#ECF1E7"/>
<path d="M91.3046 93.3251C91.1332 92.3703 90.9167 91.4847 90.6555 90.669C90.3944 89.8527 90.0434 89.0576 89.6034 88.2823C89.1626 87.5078 88.6565 86.8464 88.0853 86.2994C87.5137 85.7525 86.8159 85.3165 85.992 84.9896C85.1682 84.6633 84.2579 84.5002 83.2627 84.5002C83.0992 84.5002 82.7486 84.6758 82.2099 85.0267C81.6712 85.3773 81.0761 85.7696 80.423 86.2015C79.7701 86.6334 78.8978 87.0254 77.8037 87.3763C76.7094 87.7273 75.608 87.9028 74.4989 87.9028C73.3893 87.9028 72.2876 87.7273 71.1941 87.3763C70.1004 87.0254 69.2276 86.6334 68.5748 86.2015C67.9218 85.7696 67.3263 85.3773 66.7878 85.0267C66.2491 84.6758 65.8985 84.5002 65.735 84.5002C64.7397 84.5002 63.8299 84.6633 63.0057 84.9896C62.1814 85.3165 61.4839 85.7525 60.9127 86.2994C60.3411 86.8458 59.8357 87.5078 59.3947 88.2823C58.9543 89.0576 58.6034 89.8527 58.3423 90.669C58.0812 91.4847 57.8652 92.3703 57.6935 93.3251C57.5221 94.2799 57.4079 95.1689 57.3508 95.9934C57.2936 96.8176 57.2652 97.6624 57.2652 98.5274C57.2652 100.485 57.8606 102.032 59.0519 103.166C60.2436 104.299 61.8267 104.867 63.801 104.867H85.1962C87.1706 104.867 88.7536 104.299 89.9455 103.166C91.1368 102.032 91.7324 100.485 91.7324 98.5274C91.7324 97.6624 91.7037 96.8179 91.6474 95.9934C91.5894 95.1689 91.4753 94.2798 91.3046 93.3251Z" fill="#ECF1E7"/>
<path d="M65.5161 82.9341C64.1941 81.0247 63.5333 78.9359 63.5336 76.6675C63.5336 76.1942 63.5745 75.6558 63.656 75.052C62.5787 75.4272 61.4935 75.615 60.4001 75.615C59.4372 75.615 58.4664 75.4396 57.4871 75.0889C56.5082 74.738 55.7124 74.3912 55.1006 74.0483C54.4886 73.7056 54.1334 73.5342 54.0355 73.5342C52.0118 73.5343 51 76.4147 51 82.1755C51 83.4482 51.457 84.4157 52.3707 85.0761C53.2847 85.7369 54.4108 86.0675 55.7486 86.0675H59.0291C60.7102 84.0603 62.8722 83.0159 65.5161 82.9341Z" fill="#ECF1E7"/>
<defs>
<filter id="filter0_d_172_4" x="0.5" y="0.5" width="165" height="165" filterUnits="userSpaceOnUse" color-interpolation-filters="sRGB">
<feFlood flood-opacity="0" result="BackgroundImageFix"/>
<feColorMatrix in="SourceAlpha" type="matrix" values="0 0 0 0 0 0 0 0 0 0 0 0 0 0 0 0 0 0 127 0" result="hardAlpha"/>
<feOffset dx="10"/>
<feGaussianBlur stdDeviation="15"/>
<feComposite in2="hardAlpha" operator="out"/>
<feColorMatrix type="matrix" values="0 0 0 0 0.345098 0 0 0 0 0.521569 0 0 0 0 0.207843 0 0 0 0.11 0"/>
<feBlend mode="normal" in2="BackgroundImageFix" result="effect1_dropShadow_172_4"/>
<feBlend mode="normal" in="SourceGraphic" in2="effect1_dropShadow_172_4" result="shape"/>
</filter>
</defs>
</svg>
