<svg width="85" height="51" viewBox="0 0 85 51" fill="none" xmlns="http://www.w3.org/2000/svg">
<path fill-rule="evenodd" clip-rule="evenodd" d="M60.231 0.811688C67.5562 2.50764 70.3583 6.7813 73.8713 12.6634H60.231V0.811688ZM17.4221 13.1574C18.8564 13.1574 19.8974 13.8481 19.8974 15.4624C19.8974 16.8239 18.7932 17.9282 17.4292 17.932H2.47525C1.10806 17.932 0 19.0382 0 20.4017C0 21.7658 1.10806 22.8713 2.47525 22.8713H24.7525C26.1326 22.8713 27.2374 23.9762 27.2374 25.341C27.2374 26.7051 26.1293 27.8106 24.7621 27.8106H2.47525C1.10806 27.8106 0 28.9162 0 30.2803C0 31.6444 1.10806 32.7499 2.47525 32.7499H7.92079V40.1589C7.92079 41.523 9.02885 42.6285 10.396 42.6285H15.3717C16.2586 46.9877 20.1191 50.2021 24.67 50.2021C29.2208 50.2021 33.0813 46.9877 33.9683 42.6285H59.1011C59.988 46.9877 63.8485 50.2021 68.3994 50.2021C72.9502 50.2021 76.8107 46.9877 77.6976 42.6285H82.0132C83.3804 42.6285 84.4885 41.523 84.4885 40.1589V25.341C84.4885 18.0947 76.8281 17.6137 76.821 17.6027H57.7558C56.3886 17.6027 55.2805 16.4972 55.2805 15.1331V0.315186H10.396C9.02885 0.315186 7.92079 1.42074 7.92079 2.78484V8.21807H4.9505C3.58331 8.21807 2.47525 9.32363 2.47525 10.6877C2.47525 12.0518 3.58331 13.1574 4.9505 13.1574H17.4221ZM71.6082 37.5336C73.3801 39.3016 73.3801 42.1693 71.6082 43.9373C68.7577 46.7813 63.8614 44.758 63.8614 40.7351C63.8614 36.713 68.7577 34.6896 71.6082 37.5336V37.5336ZM27.8788 37.5336C29.6508 39.3016 29.6508 42.1693 27.8788 43.9373C25.0284 46.7813 20.132 44.758 20.132 40.7351C20.132 36.713 25.0284 34.6896 27.8788 37.5336V37.5336Z" fill="#588535"/>
</svg>
