<svg width="51" height="71" viewBox="0 0 51 71" fill="none" xmlns="http://www.w3.org/2000/svg">
<path d="M43.2327 0.337891C43.2327 0.337891 37.4734 5.91291 31.2447 8.16058C-14.881 24.8067 4.57217 57.2454 5.2068 57.3524C5.2068 57.3524 7.79331 52.8583 11.2873 50.295C33.4586 34.0326 37.9649 15.3138 37.9649 15.3138C37.9649 15.3138 32.9896 37.8385 13.2649 51.854C8.90845 54.9479 5.95861 62.5657 4.70991 70.1797C4.70991 70.1797 7.79801 68.9348 9.12592 68.5976C9.64376 65.2261 10.7264 61.9977 12.5568 59.1136C40.1244 62.3884 49.1534 40.225 50.3329 32.4968C53.1168 14.2444 43.2327 0.337891 43.2327 0.337891Z" fill="#588535"/>
</svg>
