<svg width="68" height="58" viewBox="0 0 68 58" fill="none" xmlns="http://www.w3.org/2000/svg">
<path d="M28.4976 37.3708C28.4976 35.0588 28.5525 34.4638 28.2922 33.3912C27.5167 30.2064 24.6349 27.835 21.2069 27.835H19.086C15.057 27.835 11.7953 31.106 11.7953 35.1092V37.3708C10.0164 37.515 8.61389 39.0055 8.61389 40.8162V53.7378C8.61389 55.645 10.1688 57.1964 12.0803 57.1964H28.2126C30.1241 57.1964 31.679 55.645 31.679 53.7378V40.8162C31.679 39.0055 30.2766 37.515 28.4976 37.3708ZM15.772 35.1092C15.772 33.2861 17.2583 31.8027 19.086 31.8027C21.1173 31.8027 22.888 31.5165 24.037 33.3898C24.6465 34.3848 24.5209 35.0611 24.5209 37.3576H15.772V35.1092Z" fill="#588535"/>
<path d="M58.9487 0.324219H8.92118C4.00194 0.324219 0 4.31706 0 9.22512V10.9048H67.8699V9.22512C67.8699 4.31706 63.8679 0.324219 58.9487 0.324219Z" fill="#588535"/>
<path d="M0 37.72C0 41.0807 1.87703 44.0115 4.63954 45.5245C4.63954 40.9688 4.036 37.377 7.8289 34.7309C8.31234 20.055 31.9894 20.1776 32.4688 34.7309C36.4147 37.4838 35.6582 41.4966 35.6582 46.621H58.9487C63.8679 46.621 67.8699 42.6281 67.8699 37.72V14.8789H0V37.72ZM38.3094 24.2269C38.3094 21.5527 40.4913 19.3757 43.1716 19.3757H54.3913C57.0717 19.3757 59.2536 21.5527 59.2536 24.2269V26.9568C59.2536 29.631 57.0717 31.808 54.3913 31.808H43.1716C40.4913 31.808 38.3094 29.631 38.3094 26.9568V24.2269Z" fill="#588535"/>
<path d="M43.1679 27.83C54.4845 27.83 55.2731 28.1897 55.2731 26.9465C55.2731 24.6739 55.5653 23.3333 54.3876 23.3333C43.071 23.3333 42.2824 22.9735 42.2824 24.2167C42.2824 26.4893 41.9902 27.83 43.1679 27.83Z" fill="#588535"/>
</svg>
