<svg width="166" height="166" viewBox="0 0 166 166" fill="none" xmlns="http://www.w3.org/2000/svg">
<g filter="url(#filter0_d_172_3)">
<circle cx="73" cy="83" r="50" fill="#588535"/>
<circle cx="73" cy="83" r="50" stroke="white" stroke-width="5"/>
</g>
<path fill-rule="evenodd" clip-rule="evenodd" d="M84.6386 68.2986C89.0337 69.3185 90.715 71.8885 92.8228 75.4257H84.6386V68.2986ZM58.9533 75.7228C59.8138 75.7228 60.4384 76.1381 60.4384 77.1089C60.4384 77.9277 59.7759 78.5917 58.9575 78.5941H49.9851C49.1648 78.5941 48.5 79.2593 48.5 80.0792C48.5 80.8995 49.1648 81.5644 49.9851 81.5644H63.3515C64.1795 81.5644 64.8424 82.2288 64.8424 83.0495C64.8424 83.8698 64.1776 84.5347 63.3573 84.5347H49.9851C49.1648 84.5347 48.5 85.1995 48.5 86.0198C48.5 86.8401 49.1648 87.505 49.9851 87.505H53.2525V91.9604C53.2525 92.7807 53.9173 93.4455 54.7376 93.4455H57.723C58.2552 96.067 60.5715 98 63.302 98C66.0325 98 68.3488 96.067 68.881 93.4455H83.9606C84.4928 96.067 86.8091 98 89.5396 98C92.2701 98 94.5864 96.067 95.1186 93.4455H97.7079C98.5282 93.4455 99.1931 92.7807 99.1931 91.9604V83.0495C99.1931 78.6919 94.5968 78.4026 94.5926 78.396H83.1535C82.3332 78.396 81.6683 77.7312 81.6683 76.9109V68H54.7376C53.9173 68 53.2525 68.6648 53.2525 69.4851V72.7525H51.4703C50.65 72.7525 49.9851 73.4173 49.9851 74.2376C49.9851 75.0579 50.65 75.7228 51.4703 75.7228H58.9533ZM91.4649 90.3817C92.5281 91.4448 92.5281 93.1694 91.4649 94.2326C89.7546 95.9428 86.8168 94.7261 86.8168 92.3069C86.8168 89.8881 89.7546 88.6714 91.4649 90.3817ZM65.2273 90.3817C66.2905 91.4448 66.2905 93.1694 65.2273 94.2326C63.517 95.9428 60.5792 94.7261 60.5792 92.3069C60.5792 89.8881 63.517 88.6714 65.2273 90.3817Z" fill="#ECF1E7"/>
<defs>
<filter id="filter0_d_172_3" x="0.5" y="0.5" width="165" height="165" filterUnits="userSpaceOnUse" color-interpolation-filters="sRGB">
<feFlood flood-opacity="0" result="BackgroundImageFix"/>
<feColorMatrix in="SourceAlpha" type="matrix" values="0 0 0 0 0 0 0 0 0 0 0 0 0 0 0 0 0 0 127 0" result="hardAlpha"/>
<feOffset dx="10"/>
<feGaussianBlur stdDeviation="15"/>
<feComposite in2="hardAlpha" operator="out"/>
<feColorMatrix type="matrix" values="0 0 0 0 0.345098 0 0 0 0 0.521569 0 0 0 0 0.207843 0 0 0 0.11 0"/>
<feBlend mode="normal" in2="BackgroundImageFix" result="effect1_dropShadow_172_3"/>
<feBlend mode="normal" in="SourceGraphic" in2="effect1_dropShadow_172_3" result="shape"/>
</filter>
</defs>
</svg>
