<svg width="166" height="166" viewBox="0 0 166 166" fill="none" xmlns="http://www.w3.org/2000/svg">
<g filter="url(#filter0_d_172_5)">
<circle cx="73" cy="83" r="50" fill="#588535"/>
<circle cx="73" cy="83" r="50" stroke="white" stroke-width="5"/>
</g>
<path d="M79.617 78.8213C79.7883 77.4558 80.3437 76.167 81.2187 75.1048C82.0937 74.0426 83.2522 73.2505 84.5596 72.8209C85.867 72.3912 87.2695 72.3414 88.6041 72.6775C89.9386 73.0135 91.1503 73.7215 92.0983 74.7191C92.7022 74.4297 93.3629 74.2783 94.0326 74.276C92.9369 72.8293 91.4309 71.7461 89.7108 71.1675C87.9907 70.589 86.1362 70.5419 84.389 71.0325C82.6418 71.523 81.0828 72.5284 79.9151 73.9177C78.7475 75.307 78.0254 77.0157 77.8428 78.8213H79.617Z" fill="#ECF1E7"/>
<path d="M85.2586 78.8221H87.321C87.4623 78.5982 87.6279 78.3907 87.8149 78.2033C87.6082 78.0697 87.3765 77.9796 87.1339 77.9384C86.8913 77.8972 86.6428 77.9059 86.4036 77.9638C86.1645 78.0216 85.9396 78.1276 85.7426 78.2752C85.5457 78.4227 85.3808 78.6088 85.2581 78.8221H85.2586Z" fill="#ECF1E7"/>
<path d="M89.4919 77.2546C89.5935 77.2298 89.6965 77.2095 89.8011 77.1937C89.9954 76.6909 90.2778 76.2267 90.6352 75.8232C89.9227 75.1287 89.0337 74.6424 88.0646 74.417C87.0955 74.1916 86.0832 74.2357 85.1374 74.5444C84.1915 74.8532 83.3482 75.4149 82.6987 76.1686C82.0492 76.9224 81.6184 77.8395 81.4528 78.8206H83.3089C83.4718 78.1889 83.8017 77.6127 84.2639 77.1524C84.7262 76.6921 85.3038 76.3648 85.9362 76.2046C86.5686 76.0444 87.2324 76.0574 87.858 76.2422C88.4836 76.4269 89.048 76.7766 89.4919 77.2546Z" fill="#ECF1E7"/>
<path d="M86.7734 80.7164C86.7734 80.6911 86.7746 80.666 86.7751 80.6407H61.5947L61.3099 82.5902C61.289 82.7334 61.2342 82.8695 61.1501 82.9872L57.0781 88.6881L60.1077 91.4001C60.2029 91.4854 60.2791 91.5898 60.3313 91.7065C60.3834 91.8233 60.4104 91.9497 60.4104 92.0775V95.4204H62.2533C62.6468 95.4215 63.0367 95.3445 63.4003 95.1939C63.7639 95.0433 64.094 94.8221 64.3715 94.543C64.542 94.3725 64.7733 94.2767 65.0144 94.2767C65.2555 94.2767 65.4867 94.3725 65.6572 94.543C65.8277 94.7135 65.9235 94.9447 65.9235 95.1858C65.9236 95.4269 65.8278 95.6582 65.6573 95.8287C65.2113 96.2771 64.6808 96.6325 64.0965 96.8745C63.5122 97.1165 62.8857 97.2403 62.2533 97.2385H60.4104V104.372L67.7834 105.191C68.0057 105.216 68.2111 105.322 68.3603 105.488C68.5095 105.655 68.592 105.871 68.592 106.095V109.731H86.7734V102.458C86.7734 102.383 86.7828 102.307 86.8014 102.234L87.9333 97.7847C89.0739 93.3065 89.4754 88.672 89.1221 84.0644C88.4345 83.8146 87.8403 83.3594 87.4202 82.7605C87.0001 82.1616 86.7742 81.448 86.7734 80.7164ZM71.2232 86.0325L71.1025 86.274C70.7196 87.0398 70.1311 87.6838 69.4028 88.1339C68.6745 88.584 67.8353 88.8224 66.9792 88.8224C66.1231 88.8224 65.2838 88.584 64.5556 88.1339C63.8273 87.6838 63.2388 87.0398 62.8559 86.274L62.7351 86.0327C62.6273 85.817 62.6095 85.5674 62.6857 85.3386C62.762 85.1099 62.926 84.9208 63.1416 84.813C63.3573 84.7051 63.6069 84.6874 63.8356 84.7636C64.0644 84.8399 64.2535 85.0039 64.3613 85.2195L64.482 85.461C64.7138 85.9247 65.0703 86.3148 65.5113 86.5874C65.9524 86.86 66.4606 87.0043 66.9791 87.0043C67.4976 87.0043 68.0059 86.86 68.4469 86.5874C68.888 86.3148 69.2444 85.9247 69.4763 85.461L69.5971 85.2194C69.706 85.0057 69.895 84.8437 70.1229 84.7688C70.3508 84.6938 70.599 84.7119 70.8136 84.8192C71.0281 84.9265 71.1915 85.1143 71.2683 85.3415C71.345 85.5688 71.3288 85.8172 71.2232 86.0325Z" fill="#ECF1E7"/>
<path d="M95.4747 76.5137C95.3121 76.4095 95.1389 76.3229 94.9579 76.2553C94.6655 76.1494 94.3568 76.0951 94.0458 76.0948C93.4226 76.0969 92.8188 76.3114 92.334 76.7029C91.8492 77.0945 91.5125 77.6397 91.3794 78.2484C91.3395 78.4512 91.2309 78.634 91.0719 78.7661C90.9129 78.8982 90.7133 78.9714 90.5067 78.9735H90.3842C89.4472 78.9735 88.6397 79.6921 88.5935 80.6281C88.5819 80.864 88.6183 81.0997 88.7005 81.3211C88.7826 81.5425 88.9089 81.7449 89.0716 81.916C89.2343 82.0871 89.4301 82.2234 89.647 82.3166C89.864 82.4099 90.0976 82.4581 90.3337 82.4583H97.7073C98.6444 82.4583 99.4519 81.7396 99.4981 80.8036C99.5096 80.5678 99.4732 80.3321 99.391 80.1108C99.3087 79.8895 99.1825 79.6872 99.0198 79.5162C98.8571 79.3451 98.6613 79.2089 98.4444 79.1157C98.2275 79.0225 97.9939 78.9744 97.7579 78.9741H97.6079C97.4006 78.9762 97.199 78.907 97.0366 78.7782C96.8743 78.6494 96.7611 78.4688 96.716 78.2665C96.6054 77.7366 96.3383 77.2522 95.9492 76.876C95.8085 76.7422 95.654 76.6238 95.4883 76.5228L95.4747 76.5137Z" fill="#ECF1E7"/>
<path d="M54.9485 66.6327C54.9627 66.5141 54.9533 66.3939 54.921 66.279C54.8886 66.164 54.834 66.0566 54.7601 65.9628C54.6862 65.8689 54.5946 65.7906 54.4905 65.7322C54.3863 65.6738 54.2717 65.6365 54.1531 65.6224C52.769 65.4584 51.3659 65.6431 50.0715 66.1598C49.9606 66.2041 49.8596 66.2698 49.7742 66.3532C49.6887 66.4366 49.6205 66.536 49.5735 66.6457C49.5265 66.7554 49.5015 66.8734 49.5001 66.9927C49.4986 67.1121 49.5207 67.2306 49.565 67.3414C49.6093 67.4523 49.6751 67.5533 49.7585 67.6388C49.8418 67.7242 49.9412 67.7924 50.051 67.8394C50.1607 67.8864 50.2786 67.9114 50.398 67.9129C50.5174 67.9143 50.6358 67.8922 50.7467 67.8479C51.7587 67.444 52.8556 67.2995 53.9376 67.4275C54.0562 67.4419 54.1765 67.4328 54.2916 67.4006C54.4066 67.3684 54.5142 67.3139 54.6081 67.24C54.7021 67.1662 54.7805 67.0745 54.8389 66.9703C54.8973 66.8661 54.9346 66.7514 54.9485 66.6327Z" fill="#ECF1E7"/>
<path d="M57.0249 68.6465C57.2908 68.8421 57.5415 69.0575 57.7749 69.291L57.9495 69.4657C58.12 69.6362 58.3512 69.732 58.5923 69.732C58.8334 69.732 59.0647 69.6362 59.2352 69.4657C59.4056 69.2952 59.5014 69.064 59.5014 68.8229C59.5014 68.5818 59.4056 68.3505 59.2352 68.18L59.0605 68.0054C58.7618 67.7068 58.441 67.4312 58.1006 67.1811C57.9063 67.0384 57.6631 66.9787 57.4248 67.0153C57.1864 67.0518 56.9723 67.1815 56.8296 67.3759C56.6869 67.5703 56.6272 67.8134 56.6638 68.0518C56.7003 68.2902 56.83 68.5042 57.0244 68.647L57.0249 68.6465Z" fill="#ECF1E7"/>
<path d="M69.5006 64.2311C69.4999 64.2461 69.4983 64.261 69.4983 64.2766V70.257L68.5893 70.3717L71.0928 72.7217L70.4488 76.0945L73.4574 74.4396L76.4661 76.0945L75.8219 72.7217L78.3256 70.3717L77.4488 70.2611C77.451 70.2361 77.4527 70.211 77.4527 70.1855V64.2766C77.4526 64.1816 77.4377 64.0873 77.4084 63.9969C77.8509 63.7544 78.2001 63.3715 78.401 62.9086C78.6019 62.4457 78.643 61.9291 78.5178 61.4403C78.3927 60.9514 78.1084 60.5181 77.7098 60.2087C77.3112 59.8993 76.821 59.7313 76.3163 59.7312H75.7049C75.5171 59.1996 75.1691 58.7392 74.7088 58.4136C74.2484 58.0879 73.6985 57.9131 73.1346 57.9131C72.5707 57.9131 72.0208 58.0879 71.5604 58.4136C71.1001 58.7392 70.7521 59.1996 70.5643 59.7312H69.9529C69.3895 59.7312 68.8461 59.9405 68.4283 60.3185C68.0105 60.6964 67.7479 61.2161 67.6916 61.7766C67.6352 62.3372 67.7891 62.8988 68.1234 63.3523C68.4577 63.8058 68.9485 64.119 69.5006 64.2311ZM75.6345 64.2766V70.0322L74.9186 69.942L73.4573 66.8347L71.996 69.942L71.3165 70.0277V64.2766H75.6345Z" fill="#ECF1E7"/>
<path d="M62.2266 68.3669C62.5021 68.3664 62.7752 68.3157 63.0325 68.2171C64.2758 69.6441 64.9586 71.4741 64.9538 73.3667C64.9538 73.6078 65.0496 73.8391 65.22 74.0095C65.3905 74.18 65.6218 74.2758 65.8629 74.2758C66.104 74.2758 66.3352 74.18 66.5057 74.0095C66.6761 73.8391 66.7719 73.6078 66.7719 73.3667C66.7781 70.9982 65.9099 68.7108 64.3338 66.9428C64.5154 66.4915 64.5473 65.9938 64.4248 65.523C64.3024 65.0522 64.0321 64.6332 63.6537 64.3275C63.2753 64.0218 62.8087 63.8457 62.3227 63.8249C61.8367 63.8042 61.3569 63.94 60.9538 64.2124C60.5508 64.4848 60.2458 64.8794 60.0837 65.338C59.9217 65.7967 59.9111 66.2953 60.0536 66.7604C60.1961 67.2255 60.4841 67.6326 60.8753 67.9218C61.2665 68.211 61.7401 68.367 62.2266 68.3669Z" fill="#ECF1E7"/>
<path d="M58.468 74.5507C59.2393 74.5364 60.0018 74.7163 60.6853 75.0741C61.3688 75.4318 61.9512 75.9558 62.379 76.5977C62.5134 76.7969 62.7211 76.9348 62.9569 76.9813C63.1926 77.0277 63.4371 76.979 63.637 76.8457C63.8369 76.7124 63.9759 76.5054 64.0236 76.27C64.0714 76.0345 64.024 75.7897 63.8917 75.5891C63.2838 74.6764 62.4519 73.9349 61.4755 73.4355C60.4992 72.9362 59.411 72.6956 58.3152 72.7369C58.0666 72.2772 57.6673 71.9172 57.1845 71.7172C56.7016 71.5173 56.1647 71.4897 55.6639 71.6391C55.1631 71.7885 54.7291 72.1057 54.4347 72.5375C54.1403 72.9693 54.0035 73.4892 54.0474 74.01C54.0913 74.5307 54.3131 75.0205 54.6756 75.3969C55.038 75.7733 55.5191 76.0135 56.0378 76.077C56.5565 76.1405 57.0812 76.0235 57.5238 75.7456C57.9664 75.4677 58.2998 75.0459 58.468 74.5512V74.5507Z" fill="#ECF1E7"/>
<path d="M88.4876 68.358L88.3457 68.6421C88.2923 68.7488 88.2604 68.8651 88.2519 68.9842C88.2434 69.1032 88.2585 69.2228 88.2962 69.3361C88.334 69.4494 88.3936 69.5541 88.4718 69.6443C88.5501 69.7345 88.6453 69.8084 88.752 69.8618C88.8588 69.9152 88.975 69.9471 89.0941 69.9555C89.2132 69.964 89.3328 69.949 89.4461 69.9112C89.5593 69.8735 89.664 69.8138 89.7542 69.7356C89.8445 69.6574 89.9184 69.5622 89.9718 69.4554L90.1137 69.1714C90.8094 67.7785 91.936 66.6474 93.3261 65.9462C93.6559 66.3357 94.1092 66.6006 94.6105 66.6965C95.1117 66.7925 95.6308 66.7139 96.0811 66.4738C96.5315 66.2337 96.886 65.8465 97.0857 65.3768C97.2853 64.9071 97.318 64.3831 97.1784 63.8922C97.0387 63.4013 96.7351 62.9731 96.3181 62.6788C95.9011 62.3845 95.3959 62.2419 94.8866 62.2748C94.3772 62.3077 93.8946 62.514 93.5189 62.8595C93.1432 63.205 92.8972 63.6687 92.8218 64.1735C90.9414 65.0321 89.4117 66.5089 88.4876 68.358Z" fill="#ECF1E7"/>
<path d="M82.2268 67.0032C82.4679 67.0032 82.6992 66.9074 82.8696 66.7369C83.0401 66.5664 83.1359 66.3352 83.1359 66.0941V65.9381C83.1329 64.7379 83.5405 63.5728 84.2912 62.6363C84.8782 63.1214 85.6196 63.38 86.3809 63.3652C87.1422 63.3503 87.873 63.063 88.4406 62.5554C89.0082 62.0478 89.375 61.3536 89.4744 60.5986C89.5739 59.8437 89.3994 59.0781 88.9827 58.4408C88.5659 57.8036 87.9345 57.3368 87.203 57.1253C86.4715 56.9137 85.6884 56.9715 84.9959 57.288C84.3033 57.6045 83.7472 58.1588 83.4284 58.8503C83.1095 59.5418 83.0492 60.3247 83.2583 61.0568C82.0082 62.3741 81.3133 64.1221 81.3178 65.9381V66.0941C81.3178 66.3352 81.4135 66.5664 81.584 66.7369C81.7545 66.9074 81.9857 67.0032 82.2268 67.0032Z" fill="#ECF1E7"/>
<defs>
<filter id="filter0_d_172_5" x="0.5" y="0.5" width="165" height="165" filterUnits="userSpaceOnUse" color-interpolation-filters="sRGB">
<feFlood flood-opacity="0" result="BackgroundImageFix"/>
<feColorMatrix in="SourceAlpha" type="matrix" values="0 0 0 0 0 0 0 0 0 0 0 0 0 0 0 0 0 0 127 0" result="hardAlpha"/>
<feOffset dx="10"/>
<feGaussianBlur stdDeviation="15"/>
<feComposite in2="hardAlpha" operator="out"/>
<feColorMatrix type="matrix" values="0 0 0 0 0.345098 0 0 0 0 0.521569 0 0 0 0 0.207843 0 0 0 0.11 0"/>
<feBlend mode="normal" in2="BackgroundImageFix" result="effect1_dropShadow_172_5"/>
<feBlend mode="normal" in="SourceGraphic" in2="effect1_dropShadow_172_5" result="shape"/>
</filter>
</defs>
</svg>
