<svg width="52" height="41" viewBox="0 0 52 41" fill="none" xmlns="http://www.w3.org/2000/svg">
<path fill-rule="evenodd" clip-rule="evenodd" d="M25.6316 0.514251L25.2814 0.86444V2.63083C25.2814 4.84959 25.4257 5.2109 26.3114 5.2109C27.197 5.2109 27.3413 4.84959 27.3413 2.63083V0.86444L26.9911 0.514251C26.7388 0.26191 26.5489 0.164062 26.3114 0.164062C26.0739 0.164062 25.8839 0.26191 25.6316 0.514251ZM18.5649 1.49251C18.2974 1.73147 18.2309 1.87 18.2311 2.18774C18.2314 2.52794 18.3688 2.76782 19.1961 3.87194C20.3904 5.46582 20.7036 5.80241 21.0666 5.88213C21.6827 6.01747 22.3737 5.30308 22.2231 4.68644C22.144 4.362 19.9729 1.4886 19.6846 1.32638C19.3093 1.11544 18.9227 1.17271 18.5649 1.49251ZM32.8853 1.35172C32.6724 1.46738 32.5141 1.7498 32.1858 2.59973C31.3808 4.68397 31.3365 4.85649 31.5033 5.25591C31.787 5.93476 32.6117 6.101 33.1027 5.57829C33.2998 5.36849 34.4481 2.49148 34.4481 2.20741C34.4481 2.14871 34.3763 1.94941 34.2887 1.76463C34.0329 1.22565 33.4393 1.05097 32.8853 1.35172ZM13.416 3.5679C13.1392 3.84465 13.1087 3.9323 13.159 4.30669C13.2096 4.68387 13.3556 4.87122 14.4598 5.97545C15.6877 7.20327 15.7098 7.21934 16.1757 7.21934C16.7926 7.21934 17.1447 6.85411 17.1447 6.21388C17.1447 5.80447 17.0913 5.73309 15.8784 4.52021C14.653 3.29475 14.598 3.25396 14.171 3.25396C13.8167 3.25396 13.6682 3.31576 13.416 3.5679ZM37.8277 4.46181C36.5541 5.7197 36.3549 6.04559 36.5351 6.57623C36.7389 7.17567 37.3633 7.42162 37.9294 7.1252C38.3732 6.89284 40.3983 4.7743 40.4772 4.45975C40.5633 4.11666 40.3711 3.61116 40.0758 3.40434C39.9577 3.32163 39.6787 3.25396 39.4558 3.25396C39.0767 3.25396 38.9717 3.33183 37.8277 4.46181ZM23.9939 7.37867C17.2608 8.06412 9.77802 11.7883 3.40778 17.6244C1.22301 19.626 0.861909 20.096 1.02114 20.7305C1.10632 21.0698 2.27966 22.2923 3.86488 23.6934C11.8694 30.768 20.5687 34.2539 28.4228 33.534C34.1191 33.0118 40.1299 30.439 45.8807 26.0615C48.4642 24.0948 51.4572 21.306 51.6016 20.7305C51.6397 20.5787 51.6397 20.3301 51.6016 20.1783C51.5143 19.8303 50.3262 18.5992 48.6617 17.1322C42.7147 11.8905 36.39 8.63173 30.1151 7.57632C28.6408 7.32831 25.4882 7.22655 23.9939 7.37867ZM29.1843 9.68405C33.0754 10.7646 36.0063 13.7095 37.098 17.6354C37.3567 18.5659 37.3807 18.8045 37.3807 20.4544C37.3807 22.1043 37.3567 22.343 37.098 23.2734C36.0003 27.2212 33.0781 30.1433 29.1304 31.2411C28.1999 31.4998 27.9613 31.5238 26.3114 31.5238C24.6652 31.5238 24.4216 31.4995 23.5013 31.2434C19.5481 30.1437 16.6223 27.2203 15.5247 23.2734C15.266 22.343 15.242 22.1043 15.242 20.4544C15.242 18.8045 15.266 18.5659 15.5247 17.6354C16.7238 13.3233 20.1151 10.2402 24.5521 9.42841C24.8116 9.38093 25.7423 9.35858 26.6204 9.37866C27.9496 9.40915 28.3787 9.46034 29.1843 9.68405ZM16.2395 11.9829C15.1485 13.2568 14.3653 14.6636 13.7976 16.3696C12.372 20.6534 13.3218 25.5203 16.2505 28.9386C16.8949 29.6906 16.85 29.681 14.6212 28.5878C11.0115 26.8171 7.21505 24.149 4.32157 21.3495L3.3946 20.4526L4.37307 19.5117C7.53867 16.4676 11.8219 13.5366 15.5852 11.8396C16.1313 11.5932 16.6161 11.3915 16.6625 11.3912C16.7089 11.3909 16.5185 11.6573 16.2395 11.9829ZM37.675 12.1455C40.1932 13.362 42.8007 14.9954 45.1594 16.8338C46.1822 17.631 48.2254 19.4192 48.8113 20.03L49.2185 20.4544L48.8113 20.8789C48.2254 21.4896 46.1822 23.2779 45.1594 24.0751C42.8007 25.9134 40.1932 27.5469 37.675 28.7634C36.8157 29.1784 36.0593 29.5181 35.9943 29.5181C35.9292 29.5181 36.1042 29.2517 36.3832 28.9259C37.4743 27.652 38.2574 26.2452 38.8252 24.5393C40.2484 20.2625 39.3006 15.389 36.3832 11.9829C36.1042 11.6573 35.9292 11.3907 35.9943 11.3907C36.0593 11.3907 36.8157 11.7304 37.675 12.1455ZM24.9832 15.5706C24.6775 15.6528 24.1909 15.8462 23.9018 16.0006C23.2284 16.36 22.2177 17.37 21.8592 18.0417C21.0736 19.514 21.0736 21.3949 21.8592 22.8671C22.217 23.5377 23.2281 24.5487 23.8987 24.9066C25.3709 25.6922 27.2518 25.6922 28.7241 24.9066C29.3947 24.5487 30.4057 23.5377 30.7635 22.8671C31.5492 21.3949 31.5492 19.514 30.7635 18.0417C30.4057 17.3711 29.3947 16.3601 28.7241 16.0023C27.6422 15.425 26.1606 15.254 24.9832 15.5706ZM27.6154 17.7377C28.6758 18.2383 29.3164 19.2616 29.3164 20.4544C29.3164 23.1998 25.927 24.5264 24.0946 22.4982C23.5347 21.8784 23.3063 21.2863 23.3063 20.4544C23.3063 18.2063 25.5766 16.775 27.6154 17.7377ZM14.6212 33.8316C14.1066 34.1528 12.2215 36.1461 12.1453 36.4497C12.0594 36.7922 12.2519 37.2979 12.5469 37.5045C12.665 37.5872 12.944 37.6549 13.1669 37.6549C13.5461 37.6549 13.651 37.577 14.795 36.447C16.0687 35.1891 16.2678 34.8632 16.0876 34.3326C15.9632 33.9667 15.5426 33.6379 15.1996 33.6384C15.0515 33.6386 14.7912 33.7255 14.6212 33.8316ZM35.792 33.9262C35.5399 34.1784 35.4781 34.3269 35.4781 34.6812C35.4781 35.1082 35.5189 35.1632 36.7443 36.3886C37.9572 37.6015 38.0286 37.6549 38.438 37.6549C39.0782 37.6549 39.4434 37.3028 39.4434 36.6859C39.4434 36.22 39.4274 36.1979 38.1996 34.9701C37.0953 33.8658 36.908 33.7198 36.5308 33.6692C36.1564 33.6189 36.0688 33.6494 35.792 33.9262ZM19.7579 35.1405C19.5647 35.2359 19.3697 35.4513 19.2707 35.679C19.0091 36.2804 18.1746 38.5803 18.1746 38.6999C18.1746 38.9598 18.515 39.4901 18.7509 39.5975C19.0964 39.755 19.3621 39.7452 19.7165 39.5619C19.9567 39.4377 20.0916 39.203 20.4366 38.3098C21.242 36.2248 21.2863 36.0524 21.1194 35.6529C20.9803 35.32 20.5152 34.9741 20.214 34.9793C20.1403 34.9806 19.9351 35.0532 19.7579 35.1405ZM30.8825 35.1692C30.5273 35.3906 30.313 35.8635 30.4008 36.2317C30.4764 36.5482 32.6525 39.4224 32.9377 39.5824C33.3137 39.7934 33.7 39.7361 34.0579 39.4163C34.3254 39.1774 34.3919 39.0389 34.3915 38.7211C34.391 38.3769 34.2465 38.1334 33.3008 36.8824C32.7013 36.0893 32.1201 35.3599 32.0095 35.2614C31.69 34.9773 31.2484 34.9411 30.8825 35.1692ZM25.7706 35.8092C25.357 36.0501 25.2814 36.4315 25.2814 38.278V40.0444L25.6316 40.3946C25.8839 40.6469 26.0739 40.7448 26.3114 40.7448C26.5489 40.7448 26.7388 40.6469 26.9911 40.3946L27.3413 40.0444V38.278C27.3413 36.4111 27.264 36.0351 26.832 35.804C26.5807 35.6695 26.0057 35.6723 25.7706 35.8092Z" fill="black"/>
</svg>
