<svg width="36" height="36" viewBox="0 0 36 36" fill="none" xmlns="http://www.w3.org/2000/svg">
<circle cx="18" cy="18" r="18" fill="white"/>
<path d="M26.8474 16.7415C26.9319 16.7415 27.0004 16.8099 27.0004 16.8944V18.5C27.0004 19.101 26.9445 19.6885 26.8375 20.2585C26.0093 24.686 22.1087 28.032 17.4334 27.9997C12.1873 27.9636 7.98878 23.7248 8.00039 18.4786C8.01193 13.2418 12.2609 9 17.5004 9C20.0673 9 22.3964 10.0184 24.1063 11.6725C24.1681 11.7323 24.1697 11.8307 24.1089 11.8914L21.8374 14.1629C21.779 14.2214 21.6845 14.2229 21.6245 14.1658C20.5513 13.1443 19.0992 12.5171 17.5004 12.5171C14.1987 12.5171 11.54 15.1569 11.5176 18.4585C11.4951 21.7817 14.1824 24.4829 17.5004 24.4829C20.1925 24.4829 22.4694 22.7045 23.2202 20.2585H17.6533C17.5688 20.2585 17.5004 20.1901 17.5004 20.1056V16.8944C17.5004 16.8099 17.5688 16.7414 17.6533 16.7414H26.8474V16.7415Z" fill="#22271C"/>
<path d="M26.8473 16.7417H25.7004C25.7849 16.7417 25.8533 16.8102 25.8533 16.8946V18.5002C25.8533 19.1012 25.7975 19.6888 25.6905 20.2588C24.9004 24.4826 21.3139 27.7221 16.9261 27.9831C17.094 27.993 17.263 27.9988 17.4332 28C22.1086 28.0322 26.0091 24.6862 26.8373 20.2588C26.9444 19.6888 27.0002 19.1012 27.0002 18.5002V16.8946C27.0002 16.8102 26.9317 16.7417 26.8473 16.7417Z" fill="#22271C"/>
<path d="M12.0656 15.9944L9.18042 13.9098C10.7991 10.9822 13.9182 9 17.4999 9C20.0669 9 22.3959 10.0184 24.1059 11.6725C24.1676 11.7323 24.1692 11.8307 24.1085 11.8914L21.837 14.1629C21.7786 14.2213 21.6841 14.2231 21.6243 14.1661C20.5511 13.1444 19.0989 12.5171 17.4999 12.5171C15.0903 12.5171 13.0133 13.9415 12.0656 15.9944Z" fill="#22271C"/>
<path d="M11.2329 15.3926L12.0658 15.9944C12.9308 14.1206 14.7369 12.7711 16.8777 12.5497C16.8938 12.548 16.9093 12.5459 16.9257 12.5443C16.7373 12.5264 16.5464 12.5171 16.3533 12.5171C14.1765 12.5171 12.2795 13.6646 11.2329 15.3926Z" fill="#22271C"/>
<path d="M22.9592 11.6725C23.021 11.7323 23.0226 11.8307 22.9618 11.8914L21.1181 13.7351C21.2948 13.8695 21.4638 14.0131 21.6243 14.1659C21.6842 14.2229 21.7787 14.2214 21.8372 14.1629L24.1087 11.8914C24.1694 11.8307 24.1678 11.7323 24.1061 11.6725C22.3961 10.0184 20.0671 9 17.5001 9C17.3075 9 17.1164 9.00642 16.9266 9.01774C19.2659 9.15708 21.3775 10.1424 22.9592 11.6725Z" fill="#22271C"/>
<path d="M24.4687 24.9559C22.7339 26.828 20.2536 27.9997 17.4999 27.9997C13.7806 27.9997 10.5605 25.8623 9.0011 22.7485L11.9467 20.73C12.8306 22.9293 14.984 24.4826 17.4999 24.4826C19.0787 24.4826 20.5147 23.8709 21.5836 22.8716L24.4687 24.9559Z" fill="#22271C"/>
<path d="M11.9469 20.7305L11.0783 21.3257C12.0871 23.205 14.071 24.483 16.3532 24.483C16.5462 24.483 16.737 24.4736 16.9253 24.4557C14.6598 24.2398 12.7626 22.7603 11.9469 20.7305Z" fill="#22271C"/>
<path d="M17.5003 28.0001C20.254 28.0001 22.7343 26.8284 24.4692 24.9563L23.7625 24.4458C22.1336 26.4731 19.6899 27.818 16.9283 27.9828C17.1176 27.9941 17.3083 28.0001 17.5003 28.0001Z" fill="#22271C"/>
<path d="M11.5171 18.4999C11.5171 19.2882 11.6696 20.0409 11.9468 20.7302L9.00121 22.7487C8.36052 21.4703 8 20.0271 8 18.4999C8 16.835 8.42817 15.2702 9.18052 13.9097L12.0657 15.9943C11.7136 16.7562 11.5171 17.6053 11.5171 18.4999Z" fill="#22271C"/>
<path d="M11.0781 21.3254L11.9467 20.7302C11.6695 20.041 11.517 19.2882 11.517 18.4999C11.517 17.6054 11.7135 16.7563 12.0656 15.9944L11.2327 15.3926C10.6918 16.2856 10.3779 17.3335 10.3703 18.4584C10.3632 19.4958 10.6203 20.4726 11.0781 21.3254Z" fill="#22271C"/>
</svg>
