<svg width="41" height="26" viewBox="0 0 41 26" fill="none" xmlns="http://www.w3.org/2000/svg">
<path d="M26.8954 26C24.4503 26 22.1491 25.3605 20.1643 24.2482C24.1915 21.9957 26.8954 17.7968 26.8954 12.9861H13.4333C13.4333 8.17543 16.1372 3.9765 20.1643 1.72409C22.1491 0.639597 24.4503 0.027832 26.8954 0.027832C34.3168 0.027832 40.3287 5.8396 40.3287 13.0139C40.3287 20.1883 34.3168 26 26.8954 26Z" fill="#D3D3D3"/>
<path d="M20.1643 24.2757C16.1372 22.0233 13.4333 17.8244 13.4333 13.0137H26.8666C26.8954 17.8244 24.1915 22.0233 20.1643 24.2757Z" fill="url(#paint0_linear_2:8060)"/>
<path d="M20.1644 24.2759C24.1915 22.0235 26.8954 17.8246 26.8954 13.0139H13.4333C13.4333 8.20321 16.1372 4.00428 20.1644 1.75187C18.1796 0.639572 15.8784 0 13.4333 0C6.01192 0.0278075 0 5.83957 0 13.0139C0 20.1882 6.01192 26 13.4333 26C15.8784 26 18.1796 25.3882 20.1644 24.2759Z" fill="#588535"/>
<g style="mix-blend-mode:multiply" opacity="0.3">
<path d="M13.4333 13.014H26.8666L20.1643 1.75195C16.1372 4.00436 13.4333 8.20329 13.4333 13.014Z" fill="url(#paint1_linear_2:8060)"/>
</g>
<g style="mix-blend-mode:multiply" opacity="0.3">
<path d="M13.4333 12.9861C13.4333 8.1754 16.1372 3.97647 20.1643 1.72406C18.1795 0.639572 15.8783 0 13.4333 0C10.9883 0 8.68705 0.639572 6.73102 1.72406L13.4333 12.9861Z" fill="url(#paint2_linear_2:8060)"/>
</g>
<defs>
<linearGradient id="paint0_linear_2:8060" x1="6.63197" y1="3.24987" x2="27.2407" y2="23.6801" gradientUnits="userSpaceOnUse">
<stop stop-color="#FFCF8B"/>
<stop offset="1" stop-color="#FF8B79"/>
</linearGradient>
<linearGradient id="paint1_linear_2:8060" x1="20.1644" y1="-8.65352" x2="20.1644" y2="12.6631" gradientUnits="userSpaceOnUse">
<stop offset="0.4935" stop-color="white"/>
<stop offset="0.5384" stop-color="#F3F3F3"/>
<stop offset="0.6207" stop-color="#D1D1D1"/>
<stop offset="0.731" stop-color="#9C9C9C"/>
<stop offset="0.8655" stop-color="#515151"/>
<stop offset="1"/>
</linearGradient>
<linearGradient id="paint2_linear_2:8060" x1="9.33685" y1="-4.39353" x2="16.9073" y2="8.36593" gradientUnits="userSpaceOnUse">
<stop offset="0.4935" stop-color="white"/>
<stop offset="0.5384" stop-color="#F3F3F3"/>
<stop offset="0.6207" stop-color="#D1D1D1"/>
<stop offset="0.731" stop-color="#9C9C9C"/>
<stop offset="0.8655" stop-color="#515151"/>
<stop offset="1"/>
</linearGradient>
</defs>
</svg>
