<svg width="17" height="16" viewBox="0 0 17 16" fill="none" xmlns="http://www.w3.org/2000/svg">
<mask id="mask0_2_7723" style="mask-type:alpha" maskUnits="userSpaceOnUse" x="0" y="0" width="17" height="16">
<rect width="17" height="16" fill="#F6F6F6"/>
</mask>
<g mask="url(#mask0_2_7723)">
<path fill-rule="evenodd" clip-rule="evenodd" d="M1.46175 8.53554C-0.481045 6.58292 -0.481049 3.41709 1.46175 1.46447C3.40455 -0.488155 6.55445 -0.488155 8.49725 1.46447C10.4401 -0.488126 13.5899 -0.488123 15.5327 1.46449C17.4755 3.41711 17.4755 6.58294 15.5327 8.53556L12.0194 12.0666L12.015 12.0711L12.015 12.0711C12.0116 12.0744 12.0083 12.0778 12.0049 12.0811L8.49725 15.6066L4.9951 12.0867C4.98988 12.0815 4.98467 12.0763 4.97947 12.0711L4.96604 12.0575L1.46175 8.53554Z" fill="#F6F6F6"/>
</g>
</svg>
