<svg width="276" height="276" viewBox="0 0 276 276" fill="none" xmlns="http://www.w3.org/2000/svg">
<g filter="url(#filter0_d_104:4)">
<rect x="90" y="90" width="96" height="96" rx="5" fill="white"/>
</g>
<path d="M141.672 160.323L138.001 156.293L134.329 160.323C133.757 160.951 132.83 160.951 132.258 160.323C131.686 159.695 131.686 158.677 132.258 158.049L136.965 152.882C137.537 152.254 138.464 152.254 139.036 152.882L143.743 158.049C144.315 158.677 144.315 159.695 143.743 160.323C143.171 160.951 142.244 160.951 141.672 160.323Z" fill="#3A7F0D"/>
<path d="M141.672 160.323C142.244 160.951 143.171 160.951 143.743 160.323C144.315 159.695 144.315 158.677 143.743 158.049L139.036 152.882C138.75 152.568 138.375 152.411 138.001 152.411V156.293L141.672 160.323Z" fill="#3A7F0D"/>
<path d="M138 155.627C128.815 155.627 121.342 147.423 121.342 137.34C121.342 134.126 122.116 130.962 123.577 128.192C123.982 127.424 124.878 127.162 125.578 127.607C126.278 128.052 126.517 129.035 126.112 129.804C124.909 132.084 124.272 134.692 124.272 137.34C124.272 145.65 130.43 152.411 138 152.411C145.57 152.411 151.729 145.65 151.729 137.34C151.729 134.692 151.092 132.084 149.889 129.804C149.484 129.035 149.722 128.052 150.423 127.607C151.123 127.162 152.019 127.424 152.424 128.192C153.885 130.962 154.658 134.126 154.658 137.34C154.658 147.423 147.186 155.627 138 155.627Z" fill="#3A7F0D"/>
<path d="M138.001 152.41C145.57 152.41 151.729 145.65 151.729 137.34C151.729 134.692 151.092 132.084 149.889 129.804C149.484 129.035 149.723 128.051 150.423 127.606C151.123 127.162 152.019 127.424 152.424 128.192C153.885 130.962 154.659 134.126 154.659 137.34C154.659 147.423 147.186 155.627 138.001 155.627V152.41Z" fill="#3A7F0D"/>
<path d="M141.923 146.017H135.647C134.838 146.017 134.182 145.297 134.182 144.409V135.683H131.724C131.17 135.683 130.662 135.339 130.414 134.794C130.166 134.249 130.22 133.597 130.553 133.11L135.26 126.22C135.536 125.815 135.97 125.577 136.431 125.577H141.923C142.732 125.577 143.388 126.297 143.388 127.185V144.409C143.388 145.297 142.732 146.017 141.923 146.017Z" fill="#49A010"/>
<path d="M124.111 130.393L120.929 128.376C118.352 126.743 117.467 123.131 118.957 120.297L120.794 116.804C121.198 116.035 122.094 115.772 122.794 116.215L125.977 118.232C128.549 119.862 129.434 123.486 127.949 126.311C127.949 126.311 127.949 126.312 127.949 126.311C127.949 126.311 126.112 129.804 126.112 129.804C125.709 130.569 124.815 130.839 124.111 130.393Z" fill="#49A010"/>
<path d="M122.808 138.948H119.134C116.163 138.948 113.746 136.295 113.746 133.034V129C113.746 128.112 114.402 127.392 115.211 127.392H118.885C121.856 127.392 124.272 130.045 124.272 133.306V137.34C124.272 138.228 123.616 138.948 122.808 138.948Z" fill="#49A010"/>
<path d="M115.034 146.923L113.196 143.431C112.792 142.662 113.032 141.678 113.733 141.234L116.915 139.217C119.491 137.584 122.783 138.549 124.273 141.382C125.202 143.147 126.111 144.875 126.111 144.875C126.515 145.644 126.275 146.628 125.575 147.072L122.393 149.089C119.815 150.722 116.523 149.757 115.034 146.923Z" fill="#49A010"/>
<path d="M122.477 158.246L119.295 156.229C118.594 155.785 118.354 154.802 118.759 154.033L120.595 150.54C122.081 147.715 125.382 146.745 127.955 148.375C127.955 148.375 127.955 148.375 127.955 148.375C127.955 148.375 131.137 150.391 131.137 150.391C131.838 150.836 132.077 151.82 131.673 152.589C131.673 152.589 129.836 156.081 129.836 156.081C128.348 158.91 125.057 159.882 122.477 158.246Z" fill="#49A010"/>
<path d="M151.89 130.393L155.072 128.376C157.649 126.743 158.534 123.131 157.044 120.297L155.207 116.804C154.803 116.035 153.907 115.772 153.207 116.215L150.024 118.232C147.452 119.862 146.567 123.486 148.052 126.311C148.052 126.311 148.052 126.312 148.052 126.311C148.052 126.311 149.889 129.804 149.889 129.804C150.291 130.569 151.186 130.839 151.89 130.393Z" fill="#49A010"/>
<path d="M153.193 138.948H156.867C159.838 138.948 162.255 136.295 162.255 133.034V129C162.255 128.112 161.599 127.392 160.79 127.392H157.116C154.145 127.392 151.729 130.045 151.729 133.306V137.34C151.729 138.228 152.384 138.948 153.193 138.948Z" fill="#49A010"/>
<path d="M160.966 146.923L162.803 143.431C163.208 142.662 162.968 141.678 162.267 141.234L159.085 139.217C156.509 137.584 153.217 138.549 151.726 141.382C150.797 143.147 149.889 144.875 149.889 144.875C149.485 145.644 149.725 146.628 150.425 147.072L153.607 149.089C156.185 150.722 159.477 149.757 160.966 146.923Z" fill="#49A010"/>
<path d="M153.524 158.246L156.706 156.229C157.407 155.785 157.647 154.802 157.242 154.033L155.406 150.54C153.92 147.715 150.619 146.745 148.046 148.375C148.046 148.375 148.046 148.375 148.046 148.375C148.046 148.375 144.864 150.391 144.864 150.391C144.163 150.836 143.924 151.82 144.328 152.589C144.328 152.589 146.165 156.081 146.165 156.081C147.653 158.91 150.944 159.882 153.524 158.246Z" fill="#49A010"/>
<path d="M141.923 125.577H138.001V146.017H141.923C142.732 146.017 143.388 145.297 143.388 144.409V127.185C143.388 126.297 142.732 125.577 141.923 125.577Z" fill="#3A7F0D"/>
<defs>
<filter id="filter0_d_104:4" x="0" y="0" width="276" height="276" filterUnits="userSpaceOnUse" color-interpolation-filters="sRGB">
<feFlood flood-opacity="0" result="BackgroundImageFix"/>
<feColorMatrix in="SourceAlpha" type="matrix" values="0 0 0 0 0 0 0 0 0 0 0 0 0 0 0 0 0 0 127 0" result="hardAlpha"/>
<feMorphology radius="10" operator="dilate" in="SourceAlpha" result="effect1_dropShadow_104:4"/>
<feOffset/>
<feGaussianBlur stdDeviation="40"/>
<feComposite in2="hardAlpha" operator="out"/>
<feColorMatrix type="matrix" values="0 0 0 0 0.141176 0 0 0 0 0.223529 0 0 0 0 0.0431373 0 0 0 0.09 0"/>
<feBlend mode="normal" in2="BackgroundImageFix" result="effect1_dropShadow_104:4"/>
<feBlend mode="normal" in="SourceGraphic" in2="effect1_dropShadow_104:4" result="shape"/>
</filter>
</defs>
</svg>
