<svg width="36" height="36" viewBox="0 0 36 36" fill="none" xmlns="http://www.w3.org/2000/svg">
<circle cx="18" cy="18" r="18" fill="white"/>
<path d="M17.875 14.207C15.625 14.207 13.832 16.0352 13.832 18.25C13.832 20.5 15.625 22.293 17.875 22.293C20.0898 22.293 21.918 20.5 21.918 18.25C21.918 16.0352 20.0898 14.207 17.875 14.207ZM17.875 20.8867C16.4336 20.8867 15.2383 19.7266 15.2383 18.25C15.2383 16.8086 16.3984 15.6484 17.875 15.6484C19.3164 15.6484 20.4766 16.8086 20.4766 18.25C20.4766 19.7266 19.3164 20.8867 17.875 20.8867ZM23.0078 14.0664C23.0078 13.5391 22.5859 13.1172 22.0586 13.1172C21.5312 13.1172 21.1094 13.5391 21.1094 14.0664C21.1094 14.5938 21.5312 15.0156 22.0586 15.0156C22.5859 15.0156 23.0078 14.5938 23.0078 14.0664ZM25.6797 15.0156C25.6094 13.75 25.3281 12.625 24.4141 11.7109C23.5 10.7969 22.375 10.5156 21.1094 10.4453C19.8086 10.375 15.9062 10.375 14.6055 10.4453C13.3398 10.5156 12.25 10.7969 11.3008 11.7109C10.3867 12.625 10.1055 13.75 10.0352 15.0156C9.96484 16.3164 9.96484 20.2188 10.0352 21.5195C10.1055 22.7852 10.3867 23.875 11.3008 24.8242C12.25 25.7383 13.3398 26.0195 14.6055 26.0898C15.9062 26.1602 19.8086 26.1602 21.1094 26.0898C22.375 26.0195 23.5 25.7383 24.4141 24.8242C25.3281 23.875 25.6094 22.7852 25.6797 21.5195C25.75 20.2188 25.75 16.3164 25.6797 15.0156ZM23.9922 22.8906C23.7461 23.5938 23.1836 24.1211 22.5156 24.4023C21.4609 24.8242 19 24.7188 17.875 24.7188C16.7148 24.7188 14.2539 24.8242 13.2344 24.4023C12.5312 24.1211 12.0039 23.5938 11.7227 22.8906C11.3008 21.8711 11.4062 19.4102 11.4062 18.25C11.4062 17.125 11.3008 14.6641 11.7227 13.6094C12.0039 12.9414 12.5312 12.4141 13.2344 12.1328C14.2539 11.7109 16.7148 11.8164 17.875 11.8164C19 11.8164 21.4609 11.7109 22.5156 12.1328C23.1836 12.3789 23.7109 12.9414 23.9922 13.6094C24.4141 14.6641 24.3086 17.125 24.3086 18.25C24.3086 19.4102 24.4141 21.8711 23.9922 22.8906Z" fill="#22271C"/>
</svg>
