<svg width="100" height="100" viewBox="0 0 100 100" fill="none" xmlns="http://www.w3.org/2000/svg">
<circle cx="50" cy="50" r="50" fill="#588535" fill-opacity="0.1"/>
<path d="M51.1698 38.7506C50.7847 38.7109 50.3941 38.6905 49.998 38.6905C43.7618 38.6905 38.6889 43.7634 38.6889 49.9996C38.6889 56.2354 43.7618 61.3083 49.998 61.3083C50.3941 61.3083 50.7847 61.2882 51.1698 61.2482C56.8573 60.6601 61.3076 55.8402 61.3076 49.9996C61.3076 44.1589 56.8573 39.339 51.1698 38.7506ZM51.1698 58.8883V41.1105C55.5622 41.6864 58.9642 45.4525 58.9642 49.9996C58.9642 54.5466 55.5622 58.3127 51.1698 58.8883Z" fill="#588535"/>
<path d="M49.9996 36.9955C50.6466 36.9955 51.1715 36.4706 51.1715 35.8236V31.1719C51.1715 30.5246 50.6466 30 49.9996 30C49.3524 30 48.8278 30.5246 48.8278 31.1719V35.8236C48.8278 36.4706 49.3524 36.9955 49.9996 36.9955Z" fill="#588535"/>
<path d="M49.9996 63.0056C49.3524 63.0056 48.8278 63.5305 48.8278 64.1775V68.8292C48.8278 69.4765 49.3524 70.0011 49.9996 70.0011C50.6466 70.0011 51.1715 69.4765 51.1715 68.8292V64.1775C51.1715 63.5302 50.6469 63.0056 49.9996 63.0056Z" fill="#588535"/>
<path d="M36.9955 49.9996C36.9955 49.3523 36.4706 48.8278 35.8236 48.8278H31.1719C30.5246 48.8278 30 49.3523 30 49.9996C30 50.6466 30.5246 51.1715 31.1719 51.1715H35.8236C36.4706 51.1715 36.9955 50.6469 36.9955 49.9996Z" fill="#588535"/>
<path d="M68.8277 48.8278H64.1759C63.5287 48.8278 63.0041 49.3523 63.0041 49.9996C63.0041 50.6466 63.5287 51.1715 64.1759 51.1715H68.8277C69.4749 51.1715 69.9995 50.6466 69.9995 49.9996C69.9995 49.3523 69.4749 48.8278 68.8277 48.8278Z" fill="#588535"/>
<path d="M38.8655 40.5225C39.0943 40.7514 39.3943 40.8658 39.694 40.8658C39.994 40.8658 40.2937 40.7514 40.5225 40.5225C40.98 40.0648 40.98 39.3229 40.5225 38.8654L37.1409 35.4838C36.6835 35.0261 35.9413 35.0261 35.4839 35.4838C35.0261 35.9413 35.0261 36.6831 35.4839 37.1409L38.8655 40.5225Z" fill="#588535"/>
<path d="M61.1324 59.4772C60.675 59.0194 59.9331 59.0194 59.4754 59.4772C59.0179 59.9346 59.0179 60.6765 59.4754 61.1343L62.857 64.5159C63.0858 64.7447 63.3858 64.8592 63.6855 64.8592C63.9855 64.8592 64.2852 64.7447 64.514 64.5159C64.9715 64.0581 64.9715 63.3162 64.514 62.8588L61.1324 59.4772Z" fill="#588535"/>
<path d="M38.8652 59.4772L35.4836 62.8588C35.0262 63.3162 35.0262 64.0581 35.4836 64.5159C35.7125 64.7447 36.0122 64.8592 36.3122 64.8592C36.6118 64.8592 36.9118 64.7447 37.1407 64.5159L40.5223 61.1343C40.9798 60.6765 40.9798 59.9346 40.5223 59.4772C40.0649 59.0194 39.3227 59.0194 38.8652 59.4772Z" fill="#588535"/>
<path d="M60.3041 40.8658C60.6041 40.8658 60.9038 40.7514 61.1327 40.5225L64.5143 37.1409C64.9717 36.6831 64.9717 35.9413 64.5143 35.4838C64.0568 35.0261 63.3146 35.0261 62.8572 35.4838L59.4756 38.8654C59.0178 39.3229 59.0178 40.0648 59.4756 40.5225C59.7045 40.7514 60.0041 40.8658 60.3041 40.8658Z" fill="#588535"/>
</svg>
