<svg width="180" height="23" viewBox="0 0 180 23" fill="none" xmlns="http://www.w3.org/2000/svg">
<path d="M10.03 22.2695L0.85 1.26953H5.08L13.27 20.2595H10.84L19.12 1.26953H23.02L13.87 22.2695H10.03ZM25.236 22.2695V1.26953H29.136V22.2695H25.236ZM34.8161 22.2695V1.26953H38.0261L51.1961 17.4395H49.6061V1.26953H53.4761V22.2695H50.2661L37.0961 6.09953H38.6861V22.2695H34.8161ZM59.1032 22.2695V1.26953H62.3132L75.4832 17.4395H73.8932V1.26953H77.7632V22.2695H74.5532L61.3832 6.09953H62.9732V22.2695H59.1032ZM83.3903 22.2695V1.26953H87.2903V22.2695H83.3903ZM96.4504 17.3195L96.2404 12.6995L107.25 1.26953H111.63L102.48 10.9895L100.32 13.3595L96.4504 17.3195ZM92.9704 22.2695V1.26953H96.8704V22.2695H92.9704ZM107.61 22.2695L99.5704 12.6995L102.15 9.84953L112.17 22.2695H107.61ZM123.904 22.5695C122.264 22.5695 120.754 22.2995 119.374 21.7595C117.994 21.2195 116.794 20.4695 115.774 19.5095C114.754 18.5295 113.964 17.3895 113.404 16.0895C112.844 14.7695 112.564 13.3295 112.564 11.7695C112.564 10.2095 112.844 8.77953 113.404 7.47953C113.964 6.15953 114.754 5.01953 115.774 4.05953C116.794 3.07953 117.994 2.31953 119.374 1.77953C120.754 1.23953 122.254 0.96953 123.874 0.96953C125.514 0.96953 127.014 1.23953 128.374 1.77953C129.754 2.31953 130.954 3.07953 131.974 4.05953C132.994 5.01953 133.784 6.15953 134.344 7.47953C134.904 8.77953 135.184 10.2095 135.184 11.7695C135.184 13.3295 134.904 14.7695 134.344 16.0895C133.784 17.4095 132.994 18.5495 131.974 19.5095C130.954 20.4695 129.754 21.2195 128.374 21.7595C127.014 22.2995 125.524 22.5695 123.904 22.5695ZM123.874 19.1495C124.934 19.1495 125.914 18.9695 126.814 18.6095C127.714 18.2495 128.494 17.7395 129.154 17.0795C129.814 16.3995 130.324 15.6195 130.684 14.7395C131.064 13.8395 131.254 12.8495 131.254 11.7695C131.254 10.6895 131.064 9.70953 130.684 8.82953C130.324 7.92953 129.814 7.14953 129.154 6.48953C128.494 5.80953 127.714 5.28953 126.814 4.92953C125.914 4.56953 124.934 4.38953 123.874 4.38953C122.814 4.38953 121.834 4.56953 120.934 4.92953C120.054 5.28953 119.274 5.80953 118.594 6.48953C117.934 7.14953 117.414 7.92953 117.034 8.82953C116.674 9.70953 116.494 10.6895 116.494 11.7695C116.494 12.8295 116.674 13.8095 117.034 14.7095C117.414 15.6095 117.934 16.3995 118.594 17.0795C119.254 17.7395 120.034 18.2495 120.934 18.6095C121.834 18.9695 122.814 19.1495 123.874 19.1495ZM144.854 22.2695L135.674 1.26953H139.904L148.094 20.2595H145.664L153.944 1.26953H157.844L148.694 22.2695H144.854ZM156.416 22.2695L165.866 1.26953H169.706L179.186 22.2695H175.106L166.976 3.33953H168.536L160.436 22.2695H156.416ZM160.766 17.4095L161.816 14.3495H173.156L174.206 17.4095H160.766Z" fill="white"/>
</svg>
