<svg width="100" height="100" viewBox="0 0 100 100" fill="none" xmlns="http://www.w3.org/2000/svg">
<circle cx="50" cy="50" r="50" fill="#588535" fill-opacity="0.1"/>
<path d="M37.5127 61.0598C34.4556 63.9196 35.2205 66.5072 37.5127 66.5072C39.8049 66.5072 40.5697 63.9196 37.5127 61.0598Z" fill="#588535"/>
<path d="M43.4255 56.5443C41.6098 58.243 42.0641 59.7798 43.4255 59.7798C44.787 59.7798 45.2413 58.2429 43.4255 56.5443Z" fill="#588535"/>
<path d="M62.4902 61.0598C65.5472 63.9196 64.7824 66.5072 62.4902 66.5072C60.198 66.5072 59.4331 63.9196 62.4902 61.0598Z" fill="#588535"/>
<path d="M50.0013 60.1567C53.566 63.4915 52.6742 66.5087 50.0013 66.5087C47.3285 66.5087 46.4367 63.4915 50.0013 60.1567Z" fill="#588535"/>
<path d="M56.7107 57.2083C58.9414 59.2952 58.3833 61.1834 56.7107 61.1834C55.038 61.1834 54.4799 59.2952 56.7107 57.2083Z" fill="#588535"/>
<path d="M64.1126 46.5883C64.1126 47.1455 64.0389 47.6846 63.9008 48.1979L62.0548 48.6216L44.0106 52.7598H39.6705C36.2614 52.7598 33.4971 49.9968 33.4971 46.5883C33.4971 43.6215 35.5921 41.144 38.3836 40.5517C38.6738 38.3737 39.8259 36.4673 41.4853 35.187C42.8598 34.1279 44.583 33.4971 46.4535 33.4971C49.3055 33.4971 51.8142 34.9632 53.2684 37.1817C53.7565 37.025 54.2764 36.9387 54.8169 36.9387C57.1497 36.9387 59.1112 38.5211 59.6902 40.6692C62.2467 41.4242 64.1126 43.7881 64.1126 46.5883Z" fill="#588535"/>
<path d="M64.1147 46.5893C64.1147 47.1464 64.041 47.6856 63.9029 48.1989L62.0569 48.6226C62.1001 48.3277 62.1227 48.0256 62.1227 47.7182C62.1227 44.918 60.2567 42.554 57.7002 41.799C57.1212 39.6509 55.1597 38.0685 52.827 38.0685C52.2864 38.0685 51.7665 38.1549 51.2785 38.3116C49.8242 36.0931 47.3155 34.6269 44.4636 34.6269C43.4131 34.6269 42.4091 34.8261 41.4874 35.188C42.8619 34.1289 44.5851 33.498 46.4556 33.498C49.3076 33.498 51.8163 34.9642 53.2705 37.1827C53.7586 37.026 54.2785 36.9397 54.819 36.9397C57.1518 36.9397 59.1133 38.5221 59.6923 40.6702C62.2488 41.4252 64.1147 43.7891 64.1147 46.5893Z" fill="#588535"/>
<path d="M66.4997 50.6762C66.4997 51.8794 65.9612 52.9565 65.1112 53.6796C64.4226 54.2672 63.5295 54.6212 62.5534 54.6212C61.1815 54.6212 59.973 53.9213 59.2658 52.8595C58.1928 53.9465 56.7027 54.6212 55.0539 54.6212C53.943 54.6212 52.9045 54.3144 52.016 53.7825C51.2756 54.3097 50.3705 54.6212 49.3924 54.6212C46.893 54.6212 44.8664 52.5952 44.8664 50.0965C44.8664 47.5984 46.893 45.5725 49.3924 45.5725C49.6016 45.5725 49.8068 45.5878 50.0086 45.6157C51.0492 43.9211 52.9197 42.7909 55.0539 42.7909C57.7864 42.7909 60.0846 44.6429 60.7652 47.1589C61.3024 46.8859 61.9093 46.7306 62.5534 46.7306C64.7327 46.7306 66.4997 48.4969 66.4997 50.6762Z" fill="#588535"/>
<path d="M66.5029 50.6762C66.5029 51.8794 65.9644 52.9565 65.1144 53.6796C65.2824 53.242 65.374 52.7665 65.374 52.2699C65.374 50.0905 63.6071 48.3242 61.4277 48.3242C60.7836 48.3242 60.1767 48.4796 59.6395 48.7525C58.9589 46.2365 56.6607 44.3846 53.9282 44.3846C51.7469 44.3846 50.7993 45.2279 50.0118 45.6157C51.0523 43.9211 52.9229 42.7909 55.0571 42.7909C57.7895 42.7909 60.0877 44.6429 60.7684 47.1589C61.3056 46.8859 61.9125 46.7306 62.5566 46.7306C64.7359 46.7306 66.5029 48.4969 66.5029 50.6762Z" fill="#588535"/>
<path d="M33.996 46.5936C33.996 43.9298 35.8852 41.5959 38.488 41.0442C38.6942 41.0005 38.8505 40.8316 38.8784 40.6227C39.0006 39.7046 39.286 38.8261 39.7266 38.0116C39.8575 37.7697 39.7675 37.4675 39.5256 37.3365C39.2836 37.2056 38.9815 37.2957 38.8505 37.5376C38.4068 38.3579 38.1022 39.2354 37.9431 40.1509C36.6041 40.51 35.3949 41.2887 34.5092 42.3688C33.536 43.5558 33 45.0562 33 46.5936C33 47.8303 33.3413 49.0381 33.9869 50.0862C34.081 50.2389 34.2443 50.323 34.4115 50.323C34.5006 50.323 34.5907 50.2991 34.6721 50.249C34.9064 50.1047 34.9793 49.7979 34.835 49.5638C34.2862 48.6729 33.996 47.6458 33.996 46.5936Z" fill="#588535"/>
<path d="M39.6716 51.2671C39.9467 51.2671 40.1697 51.0441 40.1697 50.7691C40.1697 50.494 39.9467 50.271 39.6716 50.271C37.6406 50.271 35.9882 48.6193 35.9882 46.5891C35.9882 46.3141 35.7652 46.0911 35.4901 46.0911C35.2151 46.0911 34.9921 46.3141 34.9921 46.5891C34.9921 49.1686 37.0914 51.2671 39.6716 51.2671Z" fill="#588535"/>
<path d="M64.6086 46.7386C64.6098 46.6888 64.6103 46.6391 64.6103 46.5895C64.6103 45.1213 64.1422 43.7285 63.2564 42.5618C62.4553 41.5066 61.3395 40.7024 60.0923 40.2761C59.3571 38.0051 57.2261 36.442 54.8165 36.442C54.3631 36.442 53.9137 36.4972 53.4759 36.6061C51.8519 34.3413 49.2534 33 46.4529 33C44.137 33 41.962 33.9039 40.3286 35.5451C40.1345 35.7401 40.1353 36.0554 40.3302 36.2494C40.5252 36.4434 40.8405 36.4427 41.0345 36.2477C42.4797 34.7957 44.4039 33.996 46.4529 33.996C49.0396 33.996 51.4315 35.2894 52.8511 37.4559C52.974 37.6433 53.2068 37.7257 53.4203 37.6569C53.8716 37.5117 54.3414 37.4379 54.8164 37.4379C56.8692 37.4379 58.6755 38.8204 59.2089 40.8C59.254 40.9672 59.3827 41.0991 59.5488 41.1481C60.6989 41.4876 61.7338 42.2036 62.463 43.164C63.17 44.0953 63.5641 45.1962 63.6097 46.3608C63.2706 46.2777 62.9163 46.2336 62.5519 46.2336C62.0406 46.2336 61.5448 46.3185 61.0716 46.4866C60.874 45.9506 60.6053 45.4442 60.2693 44.9754C60.1091 44.7518 59.798 44.7005 59.5744 44.8607C59.3508 45.0209 59.2995 45.3321 59.4597 45.5556C59.8377 46.0829 60.1148 46.6664 60.2835 47.29C60.3226 47.4349 60.425 47.5542 60.5621 47.6151C60.6991 47.676 60.8564 47.6718 60.9901 47.6038C61.4778 47.3556 62.0033 47.2297 62.552 47.2297C64.4535 47.2297 66.0006 48.7761 66.0006 50.6769C66.0006 52.5777 64.4535 54.124 62.552 54.124C61.3955 54.124 60.3217 53.5484 59.6795 52.5842C59.5965 52.4595 59.4617 52.3788 59.3125 52.3645C59.1634 52.35 59.0158 52.4038 58.9105 52.5105C57.8837 53.551 56.5136 54.1241 55.0529 54.1241C54.0714 54.1241 53.1094 53.8585 52.271 53.3561C52.1012 53.2543 51.8872 53.2628 51.726 53.3777C51.0407 53.866 50.2334 54.1241 49.3913 54.1241C47.1703 54.1241 45.3633 52.3179 45.3633 50.0978C45.3633 47.8777 47.1703 46.0715 49.3913 46.0715C49.5689 46.0715 49.7537 46.0844 49.9404 46.1098C50.1359 46.1362 50.3286 46.0451 50.4318 45.877C51.427 44.2572 53.1545 43.2901 55.0529 43.2901C56.0403 43.2901 57.0064 43.5581 57.8467 44.065C58.0823 44.2072 58.3884 44.1313 58.5304 43.8957C58.6725 43.6602 58.5967 43.3541 58.3612 43.212C57.3655 42.6115 56.2215 42.2941 55.0529 42.2941C52.9118 42.2941 50.9546 43.3331 49.7558 45.0892C49.6327 45.0801 49.511 45.0754 49.3913 45.0754C46.6211 45.0754 44.3673 47.3285 44.3673 50.0978C44.3673 50.8726 44.5437 51.6069 44.8585 52.2628H39.6702C38.4736 52.2628 37.3295 51.8952 36.3613 51.1995C36.138 51.0391 35.8268 51.09 35.6663 51.3134C35.5058 51.5367 35.5568 51.8479 35.7801 52.0084C36.9187 52.8265 38.2638 53.2589 39.6702 53.2589H45.49C46.4119 54.3937 47.8183 55.1202 49.3913 55.1202C50.3341 55.1202 51.2419 54.8608 52.0362 54.3673C52.9615 54.8607 53.9977 55.1202 55.0529 55.1202C56.5914 55.1202 58.0448 54.5833 59.2028 53.5975C60.0417 54.5598 61.2566 55.1202 62.5521 55.1202C65.0029 55.1202 66.9967 53.1269 66.9967 50.677C66.9966 48.9682 66.0268 47.4817 64.6086 46.7386Z" fill="#588535"/>
<path d="M37.8496 60.6902C37.6581 60.5111 37.3606 60.5111 37.1691 60.6902C35.3727 62.3709 34.6234 64.1928 35.1647 65.5639C35.5196 66.4627 36.3961 66.9994 37.5093 66.9994C38.6226 66.9994 39.499 66.4627 39.8539 65.5639C40.3953 64.1928 39.646 62.3709 37.8496 60.6902ZM38.9275 65.1982C38.7224 65.7174 38.2188 66.0034 37.5093 66.0034C36.7998 66.0034 36.2962 65.7174 36.0912 65.1982C35.814 64.496 36.06 63.2429 37.5093 61.7511C38.9588 63.2429 39.2047 64.496 38.9275 65.1982Z" fill="#588535"/>
<path d="M43.7625 56.1785C43.5711 55.9994 43.2735 55.9994 43.0821 56.1785C41.9521 57.2356 41.4884 58.4007 41.8416 59.2952C42.0841 59.9093 42.675 60.2758 43.4223 60.2758C44.1697 60.2758 44.7606 59.9092 45.0031 59.2952C45.3562 58.4007 44.8925 57.2356 43.7625 56.1785ZM44.0765 58.9294C43.9562 59.2342 43.615 59.2798 43.4223 59.2798C43.2296 59.2798 42.8884 59.2342 42.768 58.9294C42.6416 58.6094 42.7559 58.0005 43.4223 57.253C44.0887 58.0005 44.2029 58.6094 44.0765 58.9294Z" fill="#588535"/>
<path d="M62.8271 60.6902C62.6356 60.5111 62.3381 60.5111 62.1466 60.6902C60.3502 62.3709 59.6009 64.1928 60.1423 65.5639C60.4972 66.4627 61.3736 66.9994 62.4869 66.9994C63.6001 66.9994 64.4766 66.4627 64.8315 65.5639C65.3728 64.1928 64.6235 62.3709 62.8271 60.6902ZM63.905 65.1982C63.7 65.7174 63.1963 66.0034 62.4869 66.0034C61.7774 66.0034 61.2738 65.7174 61.0688 65.1982C60.7915 64.496 61.0375 63.2429 62.4869 61.7511C63.9363 63.2429 64.1823 64.496 63.905 65.1982Z" fill="#588535"/>
<path d="M50.341 59.7833C50.1496 59.6043 49.8521 59.6042 49.6606 59.7833C48.9715 60.4279 48.4119 61.0905 47.9973 61.7526C47.8514 61.9857 47.922 62.293 48.1551 62.439C48.3882 62.585 48.6956 62.5143 48.8415 62.2812C49.141 61.8028 49.53 61.3201 50.001 60.8419C51.7705 62.6364 52.0679 64.1573 51.7314 65.0097C51.4825 65.6397 50.8518 66.0009 50.0008 66.0009C49.3806 66.0009 48.8805 65.8154 48.5546 65.4643C48.2527 65.1392 48.1145 64.6807 48.1548 64.1386C48.1751 63.8643 47.9693 63.6255 47.695 63.6051C47.4211 63.5846 47.1818 63.7905 47.1614 64.0648C47.1001 64.8904 47.3294 65.6087 47.8247 66.1421C48.3366 66.6933 49.1094 66.997 50.0008 66.997C51.2636 66.997 52.2568 66.3908 52.6577 65.3755C53.2761 63.8095 52.41 61.7189 50.341 59.7833Z" fill="#588535"/>
<path d="M57.0501 56.8426C56.8587 56.6635 56.5611 56.6635 56.3697 56.8426C55.0169 58.1081 54.4578 59.4928 54.8738 60.5466C55.1539 61.2559 55.8403 61.6793 56.7099 61.6793C57.5795 61.6793 58.266 61.2559 58.5459 60.5466C58.9621 59.4928 58.4029 58.1081 57.0501 56.8426ZM57.6195 60.1809C57.4469 60.618 56.9756 60.6833 56.7099 60.6833C56.4442 60.6833 55.9728 60.618 55.8002 60.1809C55.539 59.5193 56.0716 58.6127 56.7099 57.9143C57.3481 58.6127 57.8808 59.5193 57.6195 60.1809Z" fill="#588535"/>
</svg>
