<svg width="33" height="28" viewBox="0 0 33 28" fill="none" xmlns="http://www.w3.org/2000/svg">
<path fill-rule="evenodd" clip-rule="evenodd" d="M30.2154 0.540073C29.9735 0.619821 27.2587 1.66213 24.1825 2.85632C21.1064 4.05051 14.674 6.54542 9.8882 8.40059C5.10244 10.2558 1.07524 11.8492 0.938938 11.9416C0.170564 12.4622 0.0747919 13.2043 0.720875 13.6318C0.868241 13.7294 2.40317 14.2523 4.65362 14.9716C7.66427 15.9339 8.36798 16.1389 8.47111 16.0837C8.54067 16.0465 12.6274 13.5124 17.5527 10.4525C23.9463 6.48025 26.602 4.86263 26.8372 4.79696C27.093 4.72569 27.2022 4.72117 27.3243 4.77685C27.5261 4.86872 27.5231 4.98096 27.3123 5.23151C27.2191 5.3423 23.7266 8.54193 19.5512 12.3418C15.3759 16.1417 11.9595 19.2699 11.9593 19.2935C11.9591 19.3171 11.8604 20.5242 11.7399 21.9758C11.4655 25.282 11.4662 25.1468 11.723 25.4393C12.06 25.8232 12.4923 25.9348 12.9312 25.7515C13.0501 25.7018 14.0162 24.8343 15.113 23.7925C16.1956 22.764 17.168 21.8422 17.2739 21.7439L17.4665 21.5653L21.0843 24.2891C23.0741 25.7873 24.868 27.0927 25.0707 27.1901C25.5962 27.4426 26.2776 27.4783 26.6334 27.2719C26.9435 27.0921 27.2408 26.6599 27.412 26.1403C27.6073 25.5474 32.3822 2.75571 32.425 2.21187C32.4934 1.34389 32.2593 0.7445 31.7488 0.480499C31.4762 0.339481 30.7367 0.368199 30.2154 0.540073Z" fill="black"/>
</svg>
