<svg width="18" height="15" viewBox="0 0 18 15" fill="none" xmlns="http://www.w3.org/2000/svg">
<path fill-rule="evenodd" clip-rule="evenodd" d="M16.1501 1.04471C16.0271 1.08524 14.6473 1.61502 13.0838 2.22199C11.5203 2.82897 8.25085 4.09706 5.81839 5.03999C3.38592 5.98292 1.33901 6.79281 1.26973 6.83977C0.879191 7.1044 0.830513 7.48156 1.1589 7.69888C1.2338 7.74845 2.01396 8.01424 3.1578 8.37983C4.68803 8.86894 5.0457 8.97314 5.09812 8.94509C5.13348 8.92618 7.21063 7.63819 9.71401 6.08289C12.9637 4.06393 14.3135 3.24174 14.4331 3.20836C14.5631 3.17214 14.6186 3.16984 14.6806 3.19814C14.7832 3.24484 14.7817 3.30188 14.6745 3.42923C14.6272 3.48555 12.8521 5.11182 10.7298 7.04317C8.60764 8.97454 6.87116 10.5646 6.87107 10.5765C6.87097 10.5886 6.82079 11.202 6.75956 11.9399C6.62011 13.6203 6.62043 13.5516 6.75097 13.7003C6.92227 13.8954 7.14199 13.9521 7.36507 13.8589C7.4255 13.8337 7.91653 13.3928 8.47399 12.8632C9.02424 12.3405 9.5185 11.872 9.57232 11.822L9.67022 11.7312L11.509 13.1157C12.5204 13.8771 13.4322 14.5406 13.5352 14.5902C13.8023 14.7185 14.1487 14.7366 14.3295 14.6317C14.4871 14.5403 14.6382 14.3207 14.7252 14.0565C14.8245 13.7552 17.2514 2.17085 17.2732 1.89444C17.3079 1.45327 17.189 1.14861 16.9295 1.01443C16.7909 0.942755 16.4151 0.957352 16.1501 1.04471Z" fill="white"/>
</svg>
