<svg width="166" height="166" viewBox="0 0 166 166" fill="none" xmlns="http://www.w3.org/2000/svg">
<g filter="url(#filter0_d_172_2)">
<circle cx="73" cy="83" r="50" fill="#588535"/>
<circle cx="73" cy="83" r="50" stroke="white" stroke-width="5"/>
</g>
<path d="M72.9458 80.4725C78.8753 80.4725 83.6821 75.6658 83.6821 69.7363C83.6821 63.8068 78.8753 59 72.9458 59C67.0163 59 62.2095 63.8068 62.2095 69.7363C62.2095 75.6658 67.0163 80.4725 72.9458 80.4725Z" fill="#ECF1E7"/>
<path d="M72.9464 83.0039C62.4826 83.0039 54 91.4866 54 101.95C54 104.741 56.2621 107.003 59.0524 107.003H86.8405C89.6308 107.003 91.8929 104.741 91.8929 101.95C91.8928 91.4866 83.4102 83.0039 72.9464 83.0039Z" fill="#ECF1E7"/>
<defs>
<filter id="filter0_d_172_2" x="0.5" y="0.5" width="165" height="165" filterUnits="userSpaceOnUse" color-interpolation-filters="sRGB">
<feFlood flood-opacity="0" result="BackgroundImageFix"/>
<feColorMatrix in="SourceAlpha" type="matrix" values="0 0 0 0 0 0 0 0 0 0 0 0 0 0 0 0 0 0 127 0" result="hardAlpha"/>
<feOffset dx="10"/>
<feGaussianBlur stdDeviation="15"/>
<feComposite in2="hardAlpha" operator="out"/>
<feColorMatrix type="matrix" values="0 0 0 0 0.345098 0 0 0 0 0.521569 0 0 0 0 0.207843 0 0 0 0.11 0"/>
<feBlend mode="normal" in2="BackgroundImageFix" result="effect1_dropShadow_172_2"/>
<feBlend mode="normal" in="SourceGraphic" in2="effect1_dropShadow_172_2" result="shape"/>
</filter>
</defs>
</svg>
