<svg width="17" height="16" viewBox="0 0 17 16" fill="none" xmlns="http://www.w3.org/2000/svg">
<mask id="mask0_2_7711" style="mask-type:alpha" maskUnits="userSpaceOnUse" x="0" y="0" width="17" height="16">
<rect width="17" height="16" fill="#C4C4C4"/>
</mask>
<g mask="url(#mask0_2_7711)">
<path fill-rule="evenodd" clip-rule="evenodd" d="M1.46178 8.53551C-0.48102 6.58289 -0.481024 3.41706 1.46178 1.46444C3.40458 -0.488181 6.55448 -0.48818 8.49728 1.46444C10.4401 -0.488151 13.59 -0.488148 15.5328 1.46446C17.4756 3.41709 17.4756 6.58291 15.5328 8.53553L12.0194 12.0666L12.015 12.071L12.015 12.0711C12.0117 12.0744 12.0083 12.0778 12.005 12.0811L8.49727 15.6066L4.99512 12.0867C4.9899 12.0815 4.9847 12.0763 4.9795 12.0711L4.96606 12.0575L1.46178 8.53551Z" fill="#588535" fill-opacity="0.15"/>
</g>
</svg>
