<svg width="100" height="100" viewBox="0 0 100 100" fill="none" xmlns="http://www.w3.org/2000/svg">
<circle cx="50" cy="50" r="50" fill="#588535" fill-opacity="0.1"/>
<path d="M44.1715 42.7142C44.1715 40.9219 43.2519 38.8386 41.4384 36.522C40.1443 34.8691 38.863 33.7035 38.809 33.6548L38.0858 33L37.3625 33.6548C37.3086 33.7035 36.0272 34.8691 34.7332 36.522C32.9196 38.8385 32 40.9219 32 42.7142C32 46.0699 34.73 48.8 38.0857 48.8C41.4414 48.8 44.1715 46.0699 44.1715 42.7142Z" fill="#588535"/>
<path d="M66.0533 36.522C64.7592 34.8691 63.4779 33.7035 63.4239 33.6548L62.7007 33L61.9775 33.6548C61.9235 33.7035 60.6421 34.8691 59.348 36.522C57.5345 38.8386 56.6149 40.9219 56.6149 42.7142C56.6149 46.0699 59.345 48.8 62.7007 48.8C66.0564 48.8 68.7864 46.0699 68.7864 42.7142C68.7864 40.9219 67.8668 38.8385 66.0533 36.522Z" fill="#588535"/>
<path d="M51.1856 44.7461L50.4624 44.0913L49.7391 44.7461C49.4106 45.0434 41.6931 52.1005 41.6931 58.2321C41.6931 63.0675 45.627 67.0015 50.4624 67.0015C55.2979 67.0015 59.2319 63.0675 59.2319 58.2321C59.2317 52.1005 51.5142 45.0434 51.1856 44.7461ZM54.9455 58.0295C54.9455 60.719 52.7574 62.9071 50.0679 62.9071V60.7517C51.5689 60.7517 52.79 59.5305 52.79 58.0295H54.9455Z" fill="#588535"/>
</svg>
