<svg width="17" height="17" viewBox="0 0 17 17" fill="none" xmlns="http://www.w3.org/2000/svg">
<path fill-rule="evenodd" clip-rule="evenodd" d="M8.18889 0.677367C6.9726 0.802384 6.05526 1.06577 5.08476 1.56858C3.90049 2.18217 2.84522 3.126 2.10981 4.22943C0.844214 6.12842 0.460922 8.45343 1.04736 10.6742C1.18752 11.205 1.3423 11.6028 1.64469 12.2095L1.91772 12.7573L1.19943 14.8766C0.804383 16.0422 0.483504 16.9984 0.486347 17.0014C0.48919 17.0045 1.48923 16.6899 2.70864 16.3023L4.92576 15.5977L5.10402 15.695C5.56742 15.9479 6.40073 16.2499 7.02304 16.3904C7.6287 16.5271 8.10411 16.5753 8.84368 16.5747C9.62176 16.5741 10.1046 16.5137 10.8446 16.3244C12.2043 15.9764 13.4808 15.2432 14.4984 14.2256C15.7536 12.9704 16.5139 11.4229 16.7703 9.60155C16.8398 9.10736 16.8226 7.95541 16.7379 7.42957C16.6046 6.60296 16.3792 5.89237 16.0123 5.14189C15.6205 4.34065 15.124 3.64488 14.4988 3.02072C13.2614 1.78546 11.7136 1.0124 9.92967 0.738534C9.60841 0.689217 8.4647 0.649035 8.18889 0.677367ZM9.53964 1.96989C11.7278 2.21092 13.6565 3.50603 14.7439 5.46459C15.3643 6.58192 15.6476 7.96915 15.5179 9.2548C15.3604 10.8169 14.6872 12.2296 13.5715 13.3394C11.7499 15.1513 9.13926 15.7729 6.68766 14.9783C6.23196 14.8306 5.63476 14.5556 5.2775 14.3291C5.19419 14.2762 5.10367 14.2331 5.07636 14.2332C5.04905 14.2333 4.46137 14.4129 3.77036 14.6324C3.07935 14.8519 2.51016 15.0315 2.5055 15.0315C2.50083 15.0315 2.66919 14.5248 2.87959 13.9056C3.09002 13.2864 3.27722 12.7274 3.29565 12.6635C3.32779 12.5521 3.32085 12.5346 3.1249 12.2323C2.08435 10.6273 1.78513 8.62349 2.31232 6.79075C3.0445 4.2453 5.28273 2.33159 7.93336 1.98471C8.33361 1.93233 9.13182 1.92495 9.53964 1.96989ZM5.79631 5.07066C5.54229 5.20462 5.17417 5.66598 5.04152 6.01662C4.7705 6.73306 4.879 7.54334 5.3569 8.37183C5.65941 8.89626 6.28048 9.70805 6.77722 10.2284C7.54997 11.0377 8.29525 11.5383 9.29085 11.9169C10.0909 12.2211 10.6654 12.3794 10.9678 12.3792C11.2339 12.379 11.6678 12.2656 11.9347 12.1266C12.3997 11.8843 12.6662 11.6115 12.7755 11.2659C12.8606 10.997 12.8949 10.5186 12.8343 10.4456C12.7643 10.3612 11.2982 9.6455 11.0344 9.56687C10.8656 9.51656 10.7996 9.56291 10.49 9.94891C10.3263 10.1531 10.1382 10.3757 10.0719 10.4436C9.96168 10.5566 9.94018 10.5657 9.81587 10.5517C9.63748 10.5315 8.8975 10.1674 8.57365 9.94029C7.98383 9.52668 7.39774 8.90141 7.03457 8.29836C6.87544 8.03405 6.88723 7.97183 7.15374 7.66912C7.43048 7.35482 7.56533 7.1305 7.56575 6.98383C7.566 6.88631 7.04227 5.5766 6.8603 5.21976C6.75997 5.023 6.7042 5.00186 6.28926 5.00346C5.98096 5.00464 5.90079 5.01556 5.79631 5.07066Z" fill="white"/>
</svg>
