<svg width="33" height="33" viewBox="0 0 33 33" fill="none" xmlns="http://www.w3.org/2000/svg">
<path fill-rule="evenodd" clip-rule="evenodd" d="M15.3263 0.166928C12.9333 0.412893 11.1285 0.931092 9.21909 1.92036C6.88908 3.12756 4.81289 4.98449 3.366 7.15545C0.875998 10.8916 0.121889 15.466 1.27568 19.8352C1.55143 20.8795 1.85596 21.6623 2.45089 22.8559L2.98807 23.9336L1.57487 28.1033C0.797634 30.3965 0.166319 32.2778 0.171912 32.2837C0.177505 32.2898 2.14504 31.6708 4.54417 30.9083L8.90626 29.522L9.25698 29.7134C10.1687 30.2111 11.8082 30.8053 13.0326 31.0816C14.2242 31.3506 15.1595 31.4453 16.6146 31.4442C18.1454 31.443 19.0955 31.3241 20.5512 30.9517C23.2264 30.2671 25.7379 28.8245 27.7399 26.8225C30.2095 24.353 31.7054 21.3083 32.2097 17.7249C32.3466 16.7526 32.3128 14.4861 32.146 13.4516C31.8838 11.8253 31.4404 10.4272 30.7184 8.95067C29.9476 7.37426 28.9709 6.00537 27.7408 4.77736C25.3062 2.34706 22.261 0.826082 18.7512 0.287271C18.1191 0.190243 15.8689 0.111187 15.3263 0.166928ZM17.9838 2.70991C22.289 3.18412 26.0835 5.73219 28.223 9.58556C29.4436 11.7839 30.001 14.5132 29.7459 17.0426C29.4359 20.116 28.1115 22.8955 25.9164 25.0789C22.3324 28.6438 17.1961 29.8666 12.3727 28.3033C11.4761 28.0127 10.3012 27.4718 9.59828 27.026C9.43438 26.922 9.25629 26.8371 9.20256 26.8373C9.14883 26.8375 7.99259 27.191 6.63306 27.6229C5.27352 28.0547 4.15367 28.4081 4.1445 28.4081C4.13532 28.4081 4.46656 27.4112 4.88051 26.1929C5.29451 24.9745 5.66283 23.8749 5.69909 23.7491C5.76231 23.5299 5.74868 23.4954 5.36314 22.9007C3.31592 19.7429 2.72721 15.8006 3.76443 12.1947C5.20496 7.18668 9.60858 3.42154 14.8236 2.73907C15.611 2.63601 17.1815 2.62149 17.9838 2.70991ZM10.619 8.81053C10.1192 9.07409 9.39498 9.98179 9.134 10.6717C8.60078 12.0812 8.81426 13.6754 9.7545 15.3054C10.3497 16.3372 11.5716 17.9344 12.5489 18.9581C14.0693 20.5504 15.5356 21.5354 17.4944 22.2801C19.0685 22.8786 20.1987 23.1902 20.7936 23.1897C21.3172 23.1893 22.171 22.9662 22.696 22.6927C23.6109 22.216 24.1352 21.6794 24.3504 20.9994C24.5178 20.4703 24.5851 19.5291 24.4659 19.3854C24.3282 19.2194 21.4438 17.8113 20.9246 17.6566C20.5926 17.5576 20.4627 17.6488 19.8537 18.4083C19.5315 18.8101 19.1614 19.248 19.0311 19.3815C18.8142 19.6038 18.7719 19.6217 18.5273 19.5942C18.1763 19.5546 16.7205 18.838 16.0833 18.3913C14.9229 17.5776 13.7698 16.3473 13.0552 15.1609C12.7422 14.6409 12.7653 14.5184 13.2897 13.9229C13.8342 13.3045 14.0995 12.8632 14.1003 12.5746C14.1008 12.3827 13.0704 9.80595 12.7124 9.10388C12.515 8.71677 12.4053 8.67517 11.5889 8.67831C10.9823 8.68063 10.8246 8.70212 10.619 8.81053Z" fill="black"/>
</svg>
