<svg width="171" height="40" viewBox="0 0 171 40" fill="none" xmlns="http://www.w3.org/2000/svg">
<path d="M10.7461 31.67C11.7461 31.67 12.6261 31.4 13.3861 30.86C14.1661 30.32 14.5561 29.51 14.5561 28.43C14.5561 27.33 14.1361 26.49 13.2961 25.91C12.4761 25.33 11.2961 24.83 9.75609 24.41C8.23609 23.97 7.12609 23.59 6.42609 23.27C5.74609 22.95 5.09609 22.53 4.47609 22.01C3.23609 20.97 2.61609 19.36 2.61609 17.18C2.61609 15.4 3.24609 13.87 4.50609 12.59C5.78609 11.31 7.52609 10.67 9.72609 10.67C10.7861 10.67 11.8861 10.83 13.0261 11.15C14.1861 11.45 14.9061 11.6 15.1861 11.6C15.4661 11.6 15.7161 11.4 15.9361 11H16.2661L16.4761 17.06H15.9961C15.0361 15.32 14.0261 13.93 12.9661 12.89C11.9261 11.83 10.7861 11.3 9.54609 11.3C8.32609 11.3 7.37609 11.59 6.69609 12.17C6.01609 12.73 5.67609 13.49 5.67609 14.45C5.67609 15.39 6.07609 16.12 6.87609 16.64C7.69609 17.14 8.69609 17.55 9.87609 17.87C11.0561 18.19 11.8261 18.41 12.1861 18.53C12.5661 18.65 13.0261 18.82 13.5661 19.04C14.1261 19.24 14.5761 19.46 14.9161 19.7C15.2761 19.92 15.6461 20.21 16.0261 20.57C16.4261 20.91 16.7361 21.29 16.9561 21.71C17.4961 22.67 17.7661 23.81 17.7661 25.13C17.7661 27.29 17.0861 29.03 15.7261 30.35C14.3861 31.65 12.6161 32.3 10.4161 32.3C9.27609 32.3 7.96609 32.15 6.48609 31.85C5.02609 31.55 4.21609 31.4 4.05609 31.4C3.77609 31.4 3.50609 31.7 3.24609 32.3H2.82609L2.52609 25.16H3.03609C3.91609 26.9 5.03609 28.42 6.39609 29.72C7.77609 31.02 9.22609 31.67 10.7461 31.67ZM30.6832 26.57L35.9032 11.57H33.5632V11H38.1532V11.57H36.7432L29.5132 32.3H26.9932L19.3432 11.57H17.9632V11H27.7732V11.57H25.6432L30.6832 26.57ZM47.9109 35.81V8.15H49.0809V35.81H47.9109ZM80.1016 21.14C80.1016 25.26 78.9416 28.13 76.6216 29.75C74.4816 31.25 71.5416 32 67.8016 32H59.3116V31.43H61.2916V11.57H59.3116V11H68.5816C72.4216 11 75.3016 11.79 77.2216 13.37C79.1416 14.93 80.1016 17.52 80.1016 21.14ZM67.1416 31.43H68.2816C70.3016 31.43 71.7416 30.72 72.6016 29.3C73.4816 27.86 73.9216 25.46 73.9216 22.1V20.36C73.9216 15.86 73.0616 13.15 71.3416 12.23C70.5216 11.79 69.3616 11.57 67.8616 11.57H67.1416V31.43ZM81.9581 11H97.5581L97.8581 16.94H97.3181C96.4781 14.92 95.5981 13.54 94.6781 12.8C93.7581 12.04 92.4081 11.66 90.6281 11.66H89.5781V20.93H90.5981C91.5381 20.93 92.3281 20.58 92.9681 19.88C93.6081 19.16 94.0581 18.2 94.3181 17H94.7681V25.88H94.2581C93.8981 24.38 93.4081 23.31 92.7881 22.67C92.1881 22.03 91.3581 21.71 90.2981 21.71H89.5781V31.34H90.7181C92.5581 31.34 94.1181 30.79 95.3981 29.69C96.6981 28.59 97.5881 27.18 98.0681 25.46H98.6681L98.4281 32H81.9581V31.34H83.7281V11.66H81.9581V11ZM109.506 31.67C110.506 31.67 111.386 31.4 112.146 30.86C112.926 30.32 113.316 29.51 113.316 28.43C113.316 27.33 112.896 26.49 112.056 25.91C111.236 25.33 110.056 24.83 108.516 24.41C106.996 23.97 105.886 23.59 105.186 23.27C104.506 22.95 103.856 22.53 103.236 22.01C101.996 20.97 101.376 19.36 101.376 17.18C101.376 15.4 102.006 13.87 103.266 12.59C104.546 11.31 106.286 10.67 108.486 10.67C109.546 10.67 110.646 10.83 111.786 11.15C112.946 11.45 113.666 11.6 113.946 11.6C114.226 11.6 114.476 11.4 114.696 11H115.026L115.236 17.06H114.756C113.796 15.32 112.786 13.93 111.726 12.89C110.686 11.83 109.546 11.3 108.306 11.3C107.086 11.3 106.136 11.59 105.456 12.17C104.776 12.73 104.436 13.49 104.436 14.45C104.436 15.39 104.836 16.12 105.636 16.64C106.456 17.14 107.456 17.55 108.636 17.87C109.816 18.19 110.586 18.41 110.946 18.53C111.326 18.65 111.786 18.82 112.326 19.04C112.886 19.24 113.336 19.46 113.676 19.7C114.036 19.92 114.406 20.21 114.786 20.57C115.186 20.91 115.496 21.29 115.716 21.71C116.256 22.67 116.526 23.81 116.526 25.13C116.526 27.29 115.846 29.03 114.486 30.35C113.146 31.65 111.376 32.3 109.176 32.3C108.036 32.3 106.726 32.15 105.246 31.85C103.786 31.55 102.976 31.4 102.816 31.4C102.536 31.4 102.266 31.7 102.006 32.3H101.586L101.286 25.16H101.796C102.676 26.9 103.796 28.42 105.156 29.72C106.536 31.02 107.986 31.67 109.506 31.67ZM118.494 11H127.644V11.57H125.994V31.43H127.644V32H118.494V31.43H120.144V11.57H118.494V11ZM140.108 31.7C141.088 31.7 141.708 31.52 141.968 31.16C142.248 30.8 142.388 30.19 142.388 29.33V23.51H140.468V22.85H149.108V23.51H147.938V31.97H147.488C147.128 31.47 146.618 31.22 145.958 31.22C145.678 31.22 144.838 31.4 143.438 31.76C142.058 32.12 140.878 32.3 139.898 32.3C136.638 32.3 134.108 31.42 132.308 29.66C130.528 27.9 129.638 25.26 129.638 21.74C129.638 18.2 130.568 15.47 132.428 13.55C134.308 11.63 136.828 10.67 139.988 10.67C141.208 10.67 142.428 10.83 143.648 11.15C144.888 11.45 145.608 11.6 145.808 11.6C146.008 11.6 146.158 11.56 146.258 11.48C146.358 11.38 146.468 11.22 146.588 11H146.918L147.158 17.51H146.618C145.638 15.57 144.648 14.05 143.648 12.95C142.668 11.83 141.568 11.27 140.348 11.27C137.288 11.27 135.758 14.26 135.758 20.24V22.61C135.758 25.61 136.128 27.88 136.868 29.42C137.628 30.94 138.708 31.7 140.108 31.7ZM167.788 11.57V32H163.588L153.298 12.59V31.43H154.948V32H150.838V31.43H152.488V11.57H150.838V11H159.118L166.978 26.06V11.57H165.328V11H169.438V11.57H167.788Z" fill="black"/>
</svg>
