<svg width="170" height="41" viewBox="0 0 170 41" fill="none" xmlns="http://www.w3.org/2000/svg">
<path d="M9.75 32.471C10.75 32.471 11.63 32.201 12.39 31.661C13.17 31.121 13.56 30.311 13.56 29.231C13.56 28.131 13.14 27.291 12.3 26.711C11.48 26.131 10.3 25.631 8.76 25.211C7.24 24.771 6.13 24.391 5.43 24.071C4.75 23.751 4.1 23.331 3.48 22.811C2.24 21.771 1.62 20.161 1.62 17.981C1.62 16.201 2.25 14.671 3.51 13.391C4.79 12.111 6.53 11.471 8.73 11.471C9.79 11.471 10.89 11.631 12.03 11.951C13.19 12.251 13.91 12.401 14.19 12.401C14.47 12.401 14.72 12.201 14.94 11.801H15.27L15.48 17.861H15C14.04 16.121 13.03 14.731 11.97 13.691C10.93 12.631 9.79 12.101 8.55 12.101C7.33 12.101 6.38 12.391 5.7 12.971C5.02 13.531 4.68 14.291 4.68 15.251C4.68 16.191 5.08 16.921 5.88 17.441C6.7 17.941 7.7 18.351 8.88 18.671C10.06 18.991 10.83 19.211 11.19 19.331C11.57 19.451 12.03 19.621 12.57 19.841C13.13 20.041 13.58 20.261 13.92 20.501C14.28 20.721 14.65 21.011 15.03 21.371C15.43 21.711 15.74 22.091 15.96 22.511C16.5 23.471 16.77 24.611 16.77 25.931C16.77 28.091 16.09 29.831 14.73 31.151C13.39 32.451 11.62 33.101 9.42 33.101C8.28 33.101 6.97 32.951 5.49 32.651C4.03 32.351 3.22 32.201 3.06 32.201C2.78 32.201 2.51 32.501 2.25 33.101H1.83L1.53 25.961H2.04C2.92 27.701 4.04 29.221 5.4 30.521C6.78 31.821 8.23 32.471 9.75 32.471ZM29.6871 27.371L34.9071 12.371H32.5671V11.801H37.1571V12.371H35.7471L28.5171 33.101H25.9971L18.3471 12.371H16.9671V11.801H26.7771V12.371H24.6471L29.6871 27.371ZM46.9148 36.611V8.95102H48.0848V36.611H46.9148ZM79.1055 21.941C79.1055 26.061 77.9455 28.931 75.6255 30.551C73.4855 32.051 70.5455 32.801 66.8055 32.801H58.3155V32.231H60.2955V12.371H58.3155V11.801H67.5855C71.4255 11.801 74.3055 12.591 76.2255 14.171C78.1455 15.731 79.1055 18.321 79.1055 21.941ZM66.1455 32.231H67.2855C69.3055 32.231 70.7455 31.521 71.6055 30.101C72.4855 28.661 72.9255 26.261 72.9255 22.901V21.161C72.9255 16.661 72.0655 13.951 70.3455 13.031C69.5255 12.591 68.3655 12.371 66.8655 12.371H66.1455V32.231ZM80.962 11.801H96.562L96.862 17.741H96.322C95.482 15.721 94.602 14.341 93.682 13.601C92.762 12.841 91.412 12.461 89.632 12.461H88.582V21.731H89.602C90.542 21.731 91.332 21.381 91.972 20.681C92.612 19.961 93.062 19.001 93.322 17.801H93.772V26.681H93.262C92.902 25.181 92.412 24.111 91.792 23.471C91.192 22.831 90.362 22.511 89.302 22.511H88.582V32.141H89.722C91.562 32.141 93.122 31.591 94.402 30.491C95.702 29.391 96.592 27.981 97.072 26.261H97.672L97.432 32.801H80.962V32.141H82.732V12.461H80.962V11.801ZM108.51 32.471C109.51 32.471 110.39 32.201 111.15 31.661C111.93 31.121 112.32 30.311 112.32 29.231C112.32 28.131 111.9 27.291 111.06 26.711C110.24 26.131 109.06 25.631 107.52 25.211C106 24.771 104.89 24.391 104.19 24.071C103.51 23.751 102.86 23.331 102.24 22.811C101 21.771 100.38 20.161 100.38 17.981C100.38 16.201 101.01 14.671 102.27 13.391C103.55 12.111 105.29 11.471 107.49 11.471C108.55 11.471 109.65 11.631 110.79 11.951C111.95 12.251 112.67 12.401 112.95 12.401C113.23 12.401 113.48 12.201 113.7 11.801H114.03L114.24 17.861H113.76C112.8 16.121 111.79 14.731 110.73 13.691C109.69 12.631 108.55 12.101 107.31 12.101C106.09 12.101 105.14 12.391 104.46 12.971C103.78 13.531 103.44 14.291 103.44 15.251C103.44 16.191 103.84 16.921 104.64 17.441C105.46 17.941 106.46 18.351 107.64 18.671C108.82 18.991 109.59 19.211 109.95 19.331C110.33 19.451 110.79 19.621 111.33 19.841C111.89 20.041 112.34 20.261 112.68 20.501C113.04 20.721 113.41 21.011 113.79 21.371C114.19 21.711 114.5 22.091 114.72 22.511C115.26 23.471 115.53 24.611 115.53 25.931C115.53 28.091 114.85 29.831 113.49 31.151C112.15 32.451 110.38 33.101 108.18 33.101C107.04 33.101 105.73 32.951 104.25 32.651C102.79 32.351 101.98 32.201 101.82 32.201C101.54 32.201 101.27 32.501 101.01 33.101H100.59L100.29 25.961H100.8C101.68 27.701 102.8 29.221 104.16 30.521C105.54 31.821 106.99 32.471 108.51 32.471ZM117.498 11.801H126.648V12.371H124.998V32.231H126.648V32.801H117.498V32.231H119.148V12.371H117.498V11.801ZM139.112 32.501C140.092 32.501 140.712 32.321 140.972 31.961C141.252 31.601 141.392 30.991 141.392 30.131V24.311H139.472V23.651H148.112V24.311H146.942V32.771H146.492C146.132 32.271 145.622 32.021 144.962 32.021C144.682 32.021 143.842 32.201 142.442 32.561C141.062 32.921 139.882 33.101 138.902 33.101C135.642 33.101 133.112 32.221 131.312 30.461C129.532 28.701 128.642 26.061 128.642 22.541C128.642 19.001 129.572 16.271 131.432 14.351C133.312 12.431 135.832 11.471 138.992 11.471C140.212 11.471 141.432 11.631 142.652 11.951C143.892 12.251 144.612 12.401 144.812 12.401C145.012 12.401 145.162 12.361 145.262 12.281C145.362 12.181 145.472 12.021 145.592 11.801H145.922L146.162 18.311H145.622C144.642 16.371 143.652 14.851 142.652 13.751C141.672 12.631 140.572 12.071 139.352 12.071C136.292 12.071 134.762 15.061 134.762 21.041V23.411C134.762 26.411 135.132 28.681 135.872 30.221C136.632 31.741 137.712 32.501 139.112 32.501ZM166.792 12.371V32.801H162.592L152.302 13.391V32.231H153.952V32.801H149.842V32.231H151.492V12.371H149.842V11.801H158.122L165.982 26.861V12.371H164.332V11.801H168.442V12.371H166.792Z" fill="black"/>
</svg>
